<svg viewBox="0 0 347.3 197.9" xmlns="http://www.w3.org/2000/svg"><g clip-rule="evenodd" fill-rule="evenodd"><path d="M90.9 65.2l-.1.7c-.4.4-.9.6-1.6.7-2.5.5-6.3-.9-8.7-3.1-.2-.3-.5-.6-.8-.8-1.8-2.2-1.5-4.2.9-4.6 2.6-.5 6.6 1 9 3.4.1.1.5.6.8.9 1 .6 1 1.6.5 2.8z" fill="#f7f7fa"/><path d="M163.5 27.1s8.4-1.2 12.9 6.3c0 0-8 2.1-13.2-4.6z" fill="#54301c"/><path d="M217.9 131.5v-.4c.6-10.4 2.9-19.6 2.9-19.6l-35.3-3.5.4 23.5z" fill="#facc63"/><path d="M217.8 131.5c.1-.9.2-1.9.3-2.8.2-1.6.3-3.2.6-4.8.2-1.6.5-3.2.7-4.8s.4-3.2.5-4.8l-.5-.1c-.4 1.6-.7 3.2-.9 4.8s-.3 3.2-.4 4.8l-.3 4.8z" fill="#54301c"/><path d="M252.6 61.1h2.1c-.5.4-1.1.6-1.7.3-.2-.1-.3-.2-.4-.3zm-.3-.5c.1.2.2.4.3.5h-.5c.1-.3.1-.5.2-.5z" fill="#eb851c"/><path d="M268.7 50.7c-2.7.3-4.4 3.7-4.7 5.3-.1.4-.3 1.1-.6 2 0-1-.5-4.1-3.9-5.1-.9-.3-1.7-.2-2.2.2v-.2l-.7-.7c-.6-.5-2.3-1.8-3.3.2h-.1c-1.1-3-3.3-2.3-3.3-2.3s-3.6 1.6-5.8 2.6c-2.2.9-4.4 3.6-1.2 4.2.2 0 .5.1.7.1h.2c3.1 0 6.7-2.6 6.7-2.6 1 .7 1.6 2.5 1.6 2.7-.2 1.4-.2 2.8.2 3.6.1.2.2.4.3.5h2.1c-.5.4-1.1.6-1.7.3-.1-.1-.3-.2-.4-.3h-.5c-.1.3-.3.7-.8 1.2-1 1.2-1.6.8-1.6.8 0-.1-.1-.1-.1-.2-.9-2.3-3.2-4.3-4.5-5-.4-.2-.9-.3-1.4-.3h-.2c-1.3 0-2.6.6-2.4 1.6.2 1.5 4.3.9 4.8 8.3.1 1.5.3 2.7.6 3.5 1.2 3.3 3.5 2.6 4 3.8.6 1.6-4.7 11.5-8.2 16.2-3 4.1-3.9 8.7-4.1 9.9-1.6-.6-6.2-2.5-10.5-5.4-5.3-3.6-9.5-10.2-12.8-11.6-3.2-1.4-6.7-1.3-7.6-2.9 0 0-.8 1.9 7.2 7.4 5.5 3.7 8.6 10.5 9.8 13.6 0 0-1.8 2.1-2.1 3.3l-.2.1c.2.5.4 1 .5 1.5 1.8 1.2 3 2.4 3.5 3.7.1.3.2.7.2 1.1v.1l1.2.1c4.5 2.7 12.4 5.1 12.7 5.2-.8-2.1-.9-5.1-.9-5.1.7 2.6 3.3 4.6 3.3 4.6s.1-4 3.5-11.4c4.6-10 9-26.7 9-26.7.5-2.4 2.4-3.5 2.4-3.5 2.6-1.6 4.2-1.9 6-5.3.4-.8.9-2.5 1.5-4.5.9-2.8 2-6.1 3.3-7.8 2.5-2.9 3.2-7.1.5-6.8z" fill="#ed9c1c"/><path d="M227.1 57.7c.5-1.5-.8-3-2.9-4-3.4-1.6-8.8-2.1-12.1.2-5.4 3.8.2 7.4 3.2 8.9s4.7.8 4.7.8 2.1-.3 4-1.7c1.2-.8 2.5-2.1 3.1-4.2zm-1.3-5.4c3.8 2 6.1 5.5 6.1 5.5s-2.5 6.4-8.7 11.4c-5.5 4.4-11.1 6.2-15.1 8.2-.1.1-1.5 2.2-.6 3.8 0 0-.8 1.9 7.2 7.4 5.5 3.7 8.6 10.5 9.8 13.6 0 0-1.8 2.1-2.1 3.3l-.2.1c-2.1-4.4-11.2-8.7-25.2-11.3-.7-3.3-1.9-4.1-3.8-7.4-1.8-3.1 1.1-5.8 1.4-6.1.3-.2.7-.4 1-.6 2-1.6.3-4.1.3-4.1V76c-18.2-3.4-26.3-15.5-26.3-15.5 1.5-1.4 3.8-2.5 3.8-2.5-2.4-.2-6.2.6-6.2.6.4-2.4 2.1-5.3 7.2-8 .8-.4 1.6-.9 2.4-1.5 4-2.8 7-6.4 7-6.4-4.2 1.4-7.5.5-9.1 2.8s2.1 3.6 2.1 3.6c-3.2.2-4.1-2.3-4.1-2.3-.8-4.8 5.9-5.4 9.7-7.8 1-.7 2-1 3-1.3 2.5-.6 4.4.1 4.4.1-1.2.9-2.1 2-2.6 3.1-1.6 3.4-4.4 5.9-4.4 5.9 1.5 1.4 3.1 3.1 5.4 4.4 2 1.1 4.4 2 7.8 2.3 2.4.2 4.5.7 6.2 1.2 2.4.7 3.8 1.5 3.8 1.5.5-5.6-.7-15.7-4.9-19.2 0 0 4.3-1.3 7.1-.2.8.3 1.4.8 1.8 1.5s.7 1.5 1 2.3c.4 1.4.7 2.7 1 3.9.2.7.4 1.3.7 1.8-.4-.3-.5-.9-.5-.9s.2 2.5 1.9 2.2c1 .6 2.5 1.2 4.1 2.1-.1-.5-.1-1-.2-1.5.1.1 2.7 1.5 5.8 3.1z" fill="#facc63"/><path d="M228.1 14.8c10.7 5.3 8 17.5 2.1 20.5-6 3-13.1.2-16.1-4.8-.5-.9-1.1-1.7-1.8-2.5l-.1.1c-3.1 2.9-3.7 7-3.9 8.3v.4c-2.8-1-7.1.2-7.1.2-.4-.3-.9-.6-1.3-.8-.6-.3-1.2-.5-1.9-.6.2 0 3.9-.1 3.9-4.5 0 0-1.5 1.9-4.8 1.9s-6.9 1.8-7.2 4.8c0 0-1.9-.7-4.4-.1-.2-6.8-4.3-11.2-4.3-11.2-4.5 0-8.3-2.8-9.1-8.4-.6-4.3 1.8-8.9 6-10.6 5.3-2.2 9.2-.7 11.4.8 0 0 .8-5.1 6.5-6.6C209.1-1.7 214 12 214 12c3 0 8.8.1 14.1 2.8z" fill="#fff"/><path d="M222.7 45.4c2.3.3 4.3 4.5 1.4 5.9-3.1-1.6-5.7-3-5.8-3.1-.2-1.3-.5-2.4-.9-3.4-2.2-5.3-6.2-4.4-6.2-4.4-.2-.8-.6-1.6-1-2.3s-1-1.2-1.8-1.5v-.4h.1c1.4.4 2.5 3.3 2.5 3.3 2.9-1 3.6.3 5.1 1.1.3.1.5.2.7.3.1.2 2 4 5.9 4.5z" fill="#facc63"/><path d="M222.7 107.3c.3 6.2-16 8.9-36.5 7-20.1-2-36.3-8.1-37.1-14.1v-.3c-.2-4.3 6-7.3 17.9-7.9.2.3.3.5.3.5v.2c-10 .5-16.6 2.6-16.6 5.7.1 4.8 15.7 10.3 34.8 12.3 19.2 2 34.6-.3 34.5-5.1-.1-3.7-9.6-7.9-22.9-10.5 0-.3-.1-.5-.1-.7 14 2.6 23 6.9 25.2 11.3.2.5.4 1 .5 1.5z" fill="#ed9c1c"/><path d="M173.7 98.9c.1-2-3.4-3.7-7.7-3.8s-7.9 1.4-7.9 3.4 3.4 3.7 7.8 3.8c4.2.1 7.8-1.5 7.8-3.4zm13.6-2.2c.1-1.2-1.8-2.3-4.3-2.7-2.5-.3-4.7.4-4.8 1.5-.1 1.2 1.8 2.3 4.3 2.7 2.5.3 4.6-.4 4.8-1.5zm5.4 9.1c.1-1.8-2.9-3.5-6.7-3.8-3.9-.3-7.1.9-7.3 2.6-.1 1.8 2.9 3.5 6.7 3.8 3.9.3 7.1-.9 7.3-2.6zm7.1-7.7c0-1-1.7-1.8-3.8-1.9s-3.9.6-3.9 1.6 1.7 1.8 3.8 1.9 3.9-.6 3.9-1.6zm15.5 6.7c.2-1.8-2.9-3.5-6.7-3.8-3.9-.3-7.1.8-7.3 2.6s2.9 3.5 6.7 3.8c3.9.3 7.1-.9 7.3-2.6zm4.8.7c.1 4.8-15.4 7.1-34.5 5.1-19.2-2-34.7-7.5-34.8-12.3-.1-3.1 6.6-5.2 16.6-5.7 5.2-.3 11.4-.1 17.9.6 4.2.4 8.2 1 11.9 1.8 13.3 2.6 22.8 6.8 22.9 10.5z" fill="#facc63"/><path d="M218.3 48.3c.1.5.1 1 .2 1.5-1.6-.8-3.1-1.5-4.1-2.1 1.8-.2 1.2-2.8 1.2-2.8l-1.6-.1s.7 1.6-.3 1.8c-.3.1-.5 0-.7-.2-.3-.5-.5-1.1-.7-1.8 0 0 2.1-.4 5.2.4.2.8.5 2 .8 3.3z" fill="#fff"/><path d="M215.6 44.9s.5 2.6-1.2 2.8c-.2-.1-.3-.2-.5-.3-.4-.2-.7-.6-1-1.1.2.2.4.3.7.2 1-.2.3-1.8.3-1.8z" fill="#fff"/><path d="M208.6 101c3.9.3 6.9 2 6.7 3.8s-3.4 2.9-7.3 2.6-6.9-2-6.7-3.8 3.4-3 7.3-2.6z" fill="#ed9c1c"/><path d="M214.4 47.7c-1.8.2-1.9-2.2-1.9-2.2s.1.6.5.9c.3.5.6.8 1 1.1.1 0 .2.1.4.2zm3-2.8c-3.1-.9-5.2-.4-5.2-.4-.3-1.2-.6-2.6-1-3.9-.1 0 4-1 6.2 4.3z" fill="#facc63"/><path d="M201.3 37c4.2 3.5 5.4 13.6 4.9 19.2 0 0-1.5-.8-3.8-1.5 0-.3 0-4.6-.2-6.1-.1-.5-.1-.9-.2-1.4-1.9-9.7-10.6-7.5-12.4-2.6 0 .1-.1.2-.1.2-1.2 3.4-1.2 6.3-1.2 6.3-2.3-1.3-3.9-3-5.4-4.4 0 0 2.8-2.5 4.4-5.9.5-1.1 1.4-2.1 2.6-3.1 1.8-1.4 4.4-2.5 7-2.4h.3c.3 0 .6.1.9.1.6.1 1.3.3 1.9.6.4.3.9.6 1.3 1z" fill="#ed9c1c"/><path d="M194.9 48c2-.3 1.4-3.1 1.4-3.1l-1.8-.1s.8 1.7-.4 2c-1 .2-1.3-1.2-1.3-1.2s.1 2.7 2.1 2.4zm7.3.6c.2 1.5.2 5.8.2 6.1-1.7-.5-3.8-1-6.2-1.2-3.4-.3-5.8-1.2-7.8-2.3 0 0 0-2.9 1.2-6.3 8.5-1.1 12.4 2.4 12.4 2.4.1.3.1.8.2 1.3zM197.1 33c3.3 0 4.8-1.9 4.8-1.9 0 4.4-3.7 4.5-3.9 4.5-.3-.1-.6-.1-.9-.1h-.3c-2.6-.1-5.1.9-7 2.4.5-3.1 4-4.9 7.3-4.9z" fill="#fff"/><path d="M196.1 96.1c2.1.1 3.8 1 3.8 1.9 0 1-1.8 1.7-3.9 1.6s-3.8-1-3.8-1.9 1.7-1.6 3.9-1.6z" fill="#ed9c1c"/><path d="M197.2 35.4c.3 0 .6.1.9.1-.3 0-.6 0-.9-.1z" fill="#54301c"/><path d="M197 94.2c.1.2.1.5.1.7-3.7-.7-7.7-1.3-11.9-1.8-6.6-.7-12.7-.9-18-.6v-.2s-.1-.2-.3-.5c4.8-.2 10.5-.1 17.2.5.3 0 .6.1 1 .1 4.3.6 8.3 1.2 11.9 1.8z" fill="#f5ab05"/><path d="M196.2 44.9s.6 2.9-1.4 3.1c-2 .3-2.2-2.5-2.2-2.5s.3 1.4 1.3 1.2c1.2-.2.4-2 .4-2z" fill="#fff"/><path d="M189.6 44.6c1.7-4.9 10.5-7.1 12.4 2.6 0 0-4-3.5-12.4-2.4-.1-.1 0-.1 0-.2z" fill="#facc63"/><path d="M193.2 86.8c1.9 3.3 3.2 4.2 3.8 7.4-3.7-.7-7.7-1.3-11.9-1.7-.3 0-.6-.1-1-.1-.2-.6-.6-2.9-.5-4.7.2-1.9 1.7-4.3 4.4-5.5 2.3-1 4.7-.8 6.6-1.6-.3.4-3.2 3.1-1.4 6.2zm-7.3 15.2c3.9.3 6.9 2 6.7 3.8-.1 1.8-3.4 3-7.3 2.6-3.9-.3-6.9-2-6.7-3.8.2-1.7 3.5-2.9 7.3-2.6zm-2.9-8c2.5.3 4.4 1.5 4.3 2.7s-2.3 1.8-4.8 1.5-4.4-1.5-4.3-2.7c.1-1.1 2.3-1.8 4.8-1.5zm-17 1.1c4.3.1 7.8 1.8 7.7 3.8 0 2-3.6 3.5-7.9 3.4s-7.8-1.8-7.8-3.8c.1-2 3.6-3.5 8-3.4zm30 36.4l-.6-7.7-3.5-2.8-6.1 3.3.5 7.2z" fill="#ed9c1c"/><path d="M159.7 112.1c.6-1.7-14.3-4.6-14.4-7.2v-.5c.2-1.4 1-2.6 3.2-3.7l.5-.5v-.3c-.2-4.3 6-7.3 17.9-7.9-1.9-2.6-10.6-14.7-11-15.2-.5-.5-4.2-5.1-8.5-5.4-.1 0-3 0-3.1 3.3s-2.4 4-3.4 9.8c-1 5.7-.5 15.8-.5 15.8.1.1.2.1.2.2l.8 31.2 17.6-1.3c.1 0-.3-15.3.7-18.3z" fill="#ed9c1c"/><path d="M163.5 30.8c7.1 7.1 2.7 11.2 2.7 11.2-2 1.8-5.2.1-5.5-.1 1.7.8 3.8-.2 4-.5 2.4-3.5-3.6-7-6.4-8.1-.1 0-.2-.1-.3-.1-.2-.1-.3-.2-.5-.2-.2-.1-.4-.3-.6-.4-1.7-1.3-2.2-3-2.2-3v.2c-.1-.2-.1-.3-.1-.3-.2.9.2 2.4 1.3 3.7.2.2.5.5.8.7 1.7 1.3 3.2 3.5 3.3 3.7-3.9-1-6.9-.1-6.9-.1 3.4 1.1 5.8 2.9 7.6 4.6l.6.6c1.7 1.8 2.5 3.3 2.5 3.3s-1 2.5-8.3 7.2c-2.3 1.5-4.4 2.5-6.3 3.3 0 0-6.7 9-6.2 12.8 0 0 .2 2 4.4 2.2-.1 0-3 0-3.1 3.3s-2.4 4-3.4 9.8-.5 15.8-.5 15.8c.1.1.2.1.2.2l.7 31.6h-13.8c-1-2.3-2-18.4-2.9-22-1.4-5.6-2.7-11.6-3.2-14.4-.1-.5-.2-1-.4-1.4-1.1-3.3-3.2-4.1-3.2-4.1.6-2 1.6-3.7 3.2-5.6.2-.2.3-.4.5-.5 1.2-1.3 2.6-2.6 4.4-4.1 9.2-7.4 7.4-10.1 7.4-10.6 1.7-1.6 1.4-3.7 1.4-3.7-2.2-3.6-7.7-4.9-8.1-5-6.4-.9-9.7-4.3-9.9-4.5-8.7-1.9-11.8-7.2-11.8-7.2 2.3.4 4.9-.7 7.5-3.9 3.1-4-1.9-6.4-9-5.8-.3 0-.7.1-1 .1.2-.1 3.3-2 8.4-4.1.8-.3 1.7-.7 2.7-1 .3-.1.6-.2.9-.4 1.3-.5 2.3-1.1 3.2-1.7.1.1.2.1.3.2 0-.2.1-.4.3-.6.1-.1.2-.2.3-.2 0 0 .1 0 .1-.1.2-.1.3-.1.5-.2-.1 0-.1 0-.2-.1l.6-.6c3.2-2.2 6.1-.3 6.1-.3l1.1.4c-.8 2.6-1.4 5.7-1.6 9.3 0 0 1.1 0 3.3-.5.7-.2 1.5-.4 2.4-.7 3.4-1.2 7.8-1.8 11-1.8h1.5c4.2.2 7.7-1 9.1-3.5 0 0-4.3-2.6-5.7-7.7-.4-1.5-1.4-3.5-3.1-4.9.9.6 1.4 1.2 1.5 1.3-.2-.7-.5-1.3-.8-1.8.3.1 12.1 3.5 19 10.2 0-.1.1 0 .2.1z" fill="#facc63"/><path d="M139.2.9c20 .9 24.8 17.4 24.7 21 0 0-2.7-2.8-10-5.2.3.2 10.3 6.9 9.2 13.8-6.9-6.7-18.7-10.1-19-10.2-2.8-5.3-7.5-3.9-9.1-2.7-.3.2-.5.4-.7.6-2.5-.3-9.9-.9-16.4 1.6-.4.1-.8.3-1.2.5.1 0 2.5-20.4 22.5-19.4zM157.7 33c.2.1.3.2.5.2-.2-.1-.4-.2-.5-.2z" fill="#54301c"/><path d="M146.5 25.9c1.4 5.1 5.7 7.7 5.7 7.7-1.4 2.5-4.9 3.6-9.1 3.5h-1.5c.4-2.8.4-5 .1-6.6-1.1-5.7-5.9-4.9-5.9-4.9-4 .6-5.9 3.7-6.8 6.9-.9 3.1-.8 6.3-.8 7.2-2.2.6-3.3.5-3.3.5.2-3.7.8-6.7 1.6-9.3 1.6-5.1 4.3-8.3 7.6-10.1.5.3 1.9-.4 1.9-.4 3.2-1.5 5.8-.4 7.4.6 1.7 1.3 2.7 3.3 3.1 4.9z" fill="#ed9c1c"/><path d="M145.3 104.7c.1.2.1.4.2.5-.1-.1-.2-.3-.2-.5z" fill="#54301c"/><path d="M140.1 30.8c-.1.2-.4 1.4-1.3 1.2-1-.2-.5-1.6-.4-1.9 1 0 2.1.1 3.3.3.3 1.6.4 3.8-.1 6.6-3.2.1-7.6.7-11 1.8-.9.3-1.7.5-2.4.7 0-.8-.1-4 .8-7.2 0 0 2.6-1.9 7.6-2.2 0 0-.6 2.9 1.4 3.1 1.8.3 2.1-2 2.1-2.4z" fill="#fff"/><path d="M141.6 30.4c-1.2-.2-2.3-.3-3.3-.3V30l-1.8.1c-5 .3-7.6 2.2-7.6 2.2.9-3.2 2.8-6.3 6.8-6.9.1.1 4.8-.7 5.9 5z" fill="#facc63"/><path d="M138.7 32c.9.2 1.3-1 1.3-1.2 0 .3-.3 2.7-2.2 2.5-2-.3-1.4-3.1-1.4-3.1h1.8c0 .2-.5 1.6.5 1.8z" fill="#fff"/><path d="M134 20.5c0 .1.1.2.1.2-3.3 1.8-6 5-7.6 10.1l-1.1-.4s-2.9-1.9-6.1.3c.4-.4.8-.9 1-1.3.3-.4.5-.8.6-1.2.8-2 .3-3.9-1.2-5.1.1-.3-1.4-2.6-1.6-2.5l-.2-.6c6.5-2.5 13.9-1.9 16.4-1.6-.9 1-.3 2.1-.3 2.1z" fill="#facc63"/><path d="M133.2 69.5c0 .4 1.9 3.1-7.4 10.6 5.2-4.2 6.2-9.5 6.3-9.8.4-.3.8-.5 1.1-.8z" fill="#ed9c1c"/><path d="M133.2 69.5c-.3.3-.6.5-1.1.8-.1.3-1.1 5.6-6.3 9.8-1.8 1.4-3.2 2.7-4.4 4.1-.2.2-.3.4-.5.5.1-.2 1.4-3.2 2.9-6.4 1.5-3.3 2.3-6.4 6.8-7.5.6-.1 2.2-1.1 2.6-1.3z" fill="#ed9c1c"/><path d="M119.9 22.9c1.5 1.2 1.9 3.1 1.2 5.1-.1-2.1-1.9-2.1-1.9-2.1-2.7-.2-3.9 2.1-4.4 4.3-.5 1.9-.4 3.8-.4 3.8-.3.1-.6.2-.9.4-.9.3-1.8.7-2.7 1-3.3-.9-3.5-4.6.4-6 2.7-1 4-2.6 4.5-3.2 1.3-.5 3.2-1.5 4.2-3.3z" fill="#facc63"/><path d="M121 28l-.6 1.2c-1 0-2 .1-3 .2h-.5v.1c-.8.2-1.6.4-2.2.6.5-2.2 1.8-4.5 4.4-4.3.1.1 1.8.1 1.9 2.2z" fill="#ed9c1c"/><path d="M117.3 29.5c.9-.2 2-.3 3-.2-.3.5-.6.9-1 1.3l-.6.6c-.7-.4-.1-1.8-.1-1.8z" fill="#fff"/><path d="M118.7 31.3s.1 0 .2.1c-.1.1-.3.2-.5.2 0 0-.1 0-.1.1z" fill="#facc63"/><path d="M118.7 31.3c-.1.1-.3.2-.4.3s-.2.2-.3.2c-.2.1-.3.3-.5.4-.8-.7-.6-2.3-.5-2.6.2 0 .3-.1.5-.1l1.1-.1s-.6 1.5.1 1.9z" fill="#fff"/><path d="M118 31.8l-.3.6c-.1-.1-.2-.1-.3-.2.3-.1.4-.2.6-.4z" fill="#facc63"/><path d="M117 29.5h.5c-.2 0-.4.1-.5 0z" fill="#ed9c1c"/><path d="M116.9 29.6c-.1.3-.3 1.9.5 2.6-.9.6-2 1.2-3.2 1.7 0 0 0-1.8.4-3.8.8-.1 1.5-.3 2.3-.5z" fill="#fff"/><path d="M109.7 72.8l-1.2 4.5-13.6-.3c-.8-.3-1.8-.5-3.1-.2-.3 0-.5.1-.7.1l-10.8-.3-15.9-.5-1-5.7s2.3.4 6.3.9c2.4.3 5.4.6 8.9.9s7.5.6 11.9.7c4.5.2 9.4.2 14.5.1h1.4c1.1-.1 2.2-.1 3.3-.2z" fill="#facc63"/><g fill="#fff"><path d="M109.8 70.3s-.3 2.3-3.4 2.6H105c-3-.1-5.7-1.4-7.8-3l.7-.1s1-3.4 7.1-2.4c2.3 2.3 3.3 2.9 4.8 2.9z"/><path d="M104.9 67.5c-6.1-1-7.1 2.4-7.1 2.4l-.6.1c-1.2-.9-2.3-1.9-3.2-2.8l1.1-.1s1.7-3.9 7.1-2.2c1.1 1.1 2 1.9 2.7 2.6z"/><path d="M101.4 64.1l.8.8c-5.4-1.7-7.1 2.2-7.1 2.2l-1.1.1c-1.8-1.9-2.8-3.6-2.8-3.6 1.4-1.1 5.9-3.8 10.2.5z"/></g><path d="M97.2 70c2.1 1.6 4.8 2.9 7.8 3-5.1.1-10 .1-14.5-.1v-.2l.4-6.9-.2-.1c.3-.5.4-1.2.1-1.9.1-.1.2-.1.3-.2 0 0 1 1.7 2.8 3.6 1 .9 2 1.9 3.3 2.8z" fill="#f7f7fa"/><path d="M124.6 110.2c-1.4-5.6-2.7-11.6-3.2-14.4-.1-.5-2.2-3.9-2.4-4.4 0 0-4.5 10.5-7.5 12.4 0 0-1.1-3.7-7.5-11.5-6.3-7.7-6.6-12-6.6-12s0-.4-.3-.9c-.3-.8-.9-1.8-2.3-2.4l-3.8-.1c-4.5.7-6.1.1-8.3-.1-.7-.1-1.5-.1-2.5-.2-2.3-.1-5.1.1-6.7.8-2.2 1-2 3-1 3.2s3.4-.5 6.5-.5 8 1.9 9.3 2.5c.7.3 2.3.6 3.7 1 1.2.4 2.4.9 2.9 1.8 1.1 1.9 6.1 9.9 8.9 20.7 2.7 10.3 2.8 11 2.8 11.1.1-.2 3.6-5 6.2-6.5 0 0-1.8 2.8-2.2 5.6.2.1 7-1 14-6.1z" fill="#ed9c1c"/><path d="M79 62.2v.7c-.4.4-.9.6-1.6.7-2.5.5-6.3-.9-8.7-3.1-.2-.3-.5-.6-.8-.8-1.8-2.2-1.5-4.2.9-4.6 2.6-.5 6.6 1 9 3.4.1.1.5.6.8.9-.4.7-.3 1.7.4 2.8z" fill="#f7f7fa"/><path d="M68.7 60.5c1.2 1.8 1.4 5.9 1 10.7-4-.5-6.3-.9-6.3-.9s-6.3.7-5.2-3.9c1-4.4 5.3-1.7 5.3-1.7s-1.8-4.3 2.8-5.2c.6-.1 1.1 0 1.6.2.1.2.3.3.5.5.1.2.2.2.3.3z" fill="#fff"/><path d="M191.9 120.7c-.1.3-.2.7-.4.9-.2.3-.5.5-.8.7-.5.4-1.1.5-1.6.6-1.1.1-2.2.1-3.2 0-1.1-.1-2.1-.1-3.2-.4-.5-.1-1.1-.3-1.5-.6-.2-.2-.5-.4-.6-.6-.2-.3-.3-.6-.3-.9v-.2c0-.1 0-.2.1-.2.1-.2.2-.3.2-.4l.6-.6c.4-.3.9-.6 1.4-.8 1-.4 2.1-.7 3.2-.7s2.3.2 3.3.6c.5.2 1.1.5 1.5.8.2.2.5.4.7.6.1.1.2.3.3.5 0 .1.1.2.1.3v.3c.2 0 .2 0 .2.1zm-1.5 0c0-.1 0-.1 0 0-.1-.1-.1-.2-.2-.2-.1-.1-.3-.3-.4-.5-.3-.3-.8-.6-1.2-.8-.9-.4-1.8-.7-2.8-.8s-2 0-3 .3c-.5.2-1 .4-1.4.6-.2.1-.4.3-.6.5-.1.1-.1.2-.2.3v.2c0 .4.3.9.7 1.1.4.3.9.4 1.4.6 1 .2 2.1.3 3.1.4 1 0 2.1.1 3.1-.1.5-.1 1-.2 1.3-.5.2-.2.2-.4.2-.6.1-.2 0-.4 0-.5zm-27.7-5.4c0-.2.1-.2.1-.3s.1-.2.1-.2l.3-.3c.2-.2.4-.3.6-.4.4-.2.7-.3 1.1-.4.7-.1 1.5-.1 2.2.1s1.3.6 1.8 1.1c.3.3.5.5.7.9l.3.6c0 .1.1.2.1.4v.4c-.1.3-.2.5-.4.6-.2.2-.4.3-.5.4-.4.2-.7.2-1.1.2-.7 0-1.4-.1-2-.2-.7-.1-1.3-.2-2-.5-.3-.1-.7-.4-1-.8-.1-.2-.2-.5-.3-.8-.1-.2-.1-.5 0-.8zm1 .3c-.1.3-.1.5 0 .7s.3.4.6.6c.5.3 1.1.5 1.8.7.6.2 1.3.3 1.9.3.3 0 .6 0 .9-.2.3-.1.5-.3.5-.6.1-.2-.1-.5-.3-.7-.2-.3-.4-.5-.7-.7-.5-.4-1.1-.6-1.7-.8-.6-.1-1.2-.1-1.8 0l-.9.3c-.1.1-.3.1-.4.2.1.1.1.2.1.2zm15.3 3.3c-.1.3-.1.6-.3.9-.1.3-.4.5-.6.6-.4.3-.8.4-1.2.5s-.8 0-1.2 0-.8 0-1.2-.1c-.8-.1-1.6-.2-2.3-.4-.4-.1-.8-.3-1.1-.6-.2-.2-.3-.4-.5-.6-.1-.3-.2-.5-.2-.9v-.2c0-.1 0-.2.1-.2.1-.1.1-.3.2-.4.2-.2.3-.4.5-.5.3-.3.7-.5 1.1-.7.8-.4 1.6-.5 2.4-.5s1.6.3 2.4.7c.4.2.7.5 1.1.8.2.2.3.4.5.6.1.1.2.3.2.4s.1.2.1.3v.2zm-1 0v-.1c0-.1 0-.1-.1-.2s-.2-.3-.3-.4c-.3-.3-.5-.5-.9-.7-.6-.4-1.3-.7-2.1-.8-.7-.1-1.5 0-2.2.3-.4.1-.7.3-1 .5s-.6.6-.6.8c0 .4.2.7.4 1 .3.2.6.4 1 .5.7.3 1.5.4 2.2.4.8.1 1.5.1 2.3 0 .4-.1.7-.2.9-.4.4-.3.4-.6.4-.9zm-28.8-32.6c-.1-.1-.1 0 0 0z" fill="#54301c"/><path d="M187.5 123.2H186c-1.8-.1-3.2-.3-4.1-.7-1.9-.7-2.2-1.9-2.2-2.7.1-1.6 3.1-3.2 6.1-3.2h.4c2.5.1 4.6 1.3 5.5 2.3.4.5.6 1 .6 1.5-.3 2.8-3.5 2.8-4.8 2.8zm-19.7-4c-.6 0-1.3-.1-2.2-.3-1.3-.3-3.1-.8-3.4-2.3-.1-.4-.1-.7 0-1.2.3-1.2 2-1.9 3.6-1.9.4 0 .9.1 1.3.2 2.1.5 3.8 2.4 3.4 3.8-.2.5-.8 1.7-2.7 1.7z" fill="#ed9c1c"/><path d="M176.1 121.6c-.5 0-1 0-1.5-.1-3.3-.3-4.9-1.4-4.8-3.3.1-1.5 2.3-2.9 4.6-2.9h.5c1.8.2 3.3 1.2 4 2 .5.6.7 1.1.6 1.7-.2 2.6-2.6 2.6-3.4 2.6z" fill="#ed9c1c"/><g fill="#54301c"><path d="M257.3 61.3c.1 0 .1 0 0 0zm-81-12.4c-.4-.2-.7-.5-1-.7-.2-.2-.3-.3-.4-.5 0 .1.1.1.1.2.4.4.9.7 1.3 1zm93.5 4.5c-.1.5-.2.9-.4 1.4-.2.4-.4.9-.7 1.3-.1.2-.3.4-.4.6s-.3.4-.5.6c-.7.9-1.1 1.9-1.6 2.9-.8 2-1.4 4-2.1 6-.3 1-.6 2-1 2.9-.2.4-.4.9-.7 1.3s-.5.8-.8 1.2c-.6.7-1.3 1.3-2.2 1.9l-1.3.9-.7.4c-.2.1-.5.3-.7.5-.8.7-1.5 1.7-1.8 2.7s-.6 2-.8 3c-1.2 4-2.4 8-3.7 11.9-1.4 3.9-2.8 7.8-4.5 11.6-.9 1.9-1.8 3.8-2.4 5.8-.4 1-.7 2-.9 3-.1.5-.3 1-.4 1.6 0 .2-.1.4-.1.5l-.1-.1c-.3-.2-.7-.5-1-.8-.4-.4-.8-.9-1.1-1.4-.2-.3-.3-.7-.4-1.1v.3c-.1.8-.2 1.6-.2 2.4 0 .4 0 .9.1 1.3-2.3-.9-4.5-1.7-6.7-2.7-1.3-.5-2.5-1.1-3.8-1.7-1-.5-1.9-.9-2.8-1.4-.5-.9-1.3-1.8-2.5-2.7v-.4c0-.6-.2-1.2-.4-1.7h.1c0-.1.1-.4.3-.6.1-.2.3-.5.5-.8s.4-.5.5-.7c.2-.2.4-.5.6-.7l.4-.5-.2-.5c-.8-2-1.9-3.8-3.1-5.5s-2.5-3.3-3.9-4.8-3-2.8-4.7-4-3.6-2.4-4.8-3.6c1.3 1.5 2.9 2.7 4.5 4s3 2.7 4.3 4.2c1.3 1.6 2.4 3.2 3.4 5 .9 1.6 1.7 3.2 2.3 4.9-.1.1-.2.2-.3.4l-.6.9c-.1.2-.2.4-.4.6-.4-.5-.8-.9-1.3-1.3-1.4-1.2-2.9-2.1-4.4-2.9-3.1-1.6-6.3-2.7-9.6-3.6-3.2-.9-6.3-1.6-9.6-2.1-.2-.9-.5-1.5-1-2.5-.7-1.2-1.5-2.3-2.2-3.4-.4-.6-.8-1.1-1-1.7s-.3-1.3-.2-1.9c.1-1 .6-2 1.3-2.8.1 0 .2-.1.2-.1.5-.2 1-.5 1.4-.8.5-.3.8-.8 1.1-1.4.2-.6.3-1.2.2-1.8 0-.2-.1-.4-.1-.6 2.2.3 4.3.3 6.5.1-3.2-.6-6.3-1.2-9.4-1.9-3.1-.8-6.1-1.7-9-3s-5.6-3-8.1-5c-1.2-1-2.4-2.1-3.5-3.2-.5-.6-1.1-1.2-1.5-1.8l-.9-1.2c.3-.3.6-.6.9-.8s.6-.5.9-.7l.9-.6 1.7-1.1-1.9.1c-1.1 0-2.1.1-3.2.2-.9.1-1.7.3-2.6.5.4-1.6 1.5-3.1 2.8-4.2.7-.6 1.5-1.2 2.3-1.7.4-.3.8-.5 1.2-.7l1.3-.7c1.8-1 3.4-2.1 4.9-3.4s2.9-2.6 4.3-4.2l1.8-2-2.6.8c-1.1.4-2.2.7-3.4 1-1.2.2-2.4.4-3.6.9-1.2.4-2.4 1.4-2.5 2.8 0 .7.4 1.3.9 1.7.3.3.7.5 1.1.6-.1 0-.1.1-.2.1-.6-.1-1.1-.3-1.5-.6-.3-.2-.6-.5-.8-.8s-.4-.7-.5-1c-.1-.8.1-1.6.5-2.2s1.1-1.1 1.8-1.5c1.5-.8 3.1-1.3 4.8-2 .8-.3 1.7-.7 2.5-1.2l.6-.3c.2-.1.4-.2.5-.3.4-.2.7-.3 1.1-.5 1.4-.5 3-.7 4.6-.6-.1.2-.2.4-.3.7 0 0 4.1-4.3 9.8-1.9 0 0 2 .9 2.3.2v-.1c1.3-.2 2.6-.3 3.9-.3.6 0 1.3.1 1.9.3s1.1.5 1.5.8c.2.2.4.3.6.5s.3.4.4.7c.3.5.5 1.1.8 1.7.5 1.2.8 2.5 1.2 3.7.2.6.5 1.3.8 1.9 0 .1.1.1.1.2-.6 0-1.1 0-1.6.1s-1.1.3-1.5.6c-.5.3-.9.6-1.3 1 .4-.3.9-.6 1.4-.8s1-.3 1.5-.4c.8-.1 1.6.1 2.3.3.1.1.1.1.2.1.2.1.3.2.5.3 1.2.7 2.4 1.2 3.6 1.8 1.6.8 3.1 1.7 4.5 2.8-1.6-.4-3.3-.5-5-.3-1.9.2-3.8.7-5.4 1.9-.8.6-1.5 1.3-1.9 2.2-.2.5-.3 1-.2 1.5s.2 1 .5 1.5c.5.9 1.2 1.6 1.9 2.2s1.5 1.2 2.4 1.7c.8.5 1.7 1 2.7 1.3.5.2 1 .3 1.5.3h1.2c.1 0 .2 0 .3-.1.6-.1 1-.2 1.5-.3h.1c-.4.6-.8 1.2-1.4 1.7-1.2 1.2-2.9 2.1-4.7 2.3-3.6.5-7.3.1-10.8-.8s-6.9-2.4-10.2-4.1c-1.6-.9-3.2-1.8-4.7-2.8-.8-.5-1.5-1-2.2-1.6-.3-.3-.9-.5-1-.9-.2-.5.7-.6 1-.8v-.1c-.5-.3-1.1-.3-1.6-.3h-.2c-.5.1-1 .2-1.4.5-.5.3-.9.8-1.1 1.4s-.2 1.2 0 1.7h.2c.2 0 .3-.5.9-.6 1.6-.5 1.9 0 2.5.3.8.4 1.7.8 2.5 1.2 1.6.9 3.3 1.7 5 2.5 3.4 1.5 6.8 2.8 10.4 3.8 3.6.9 7.3 1.5 11 1.1 1.9-.2 3.7-1 5.3-2 1.6-1.1 3-2.6 4.2-4.2 0 0 .2-.4.4-.6.7-.7 1.4-1.6 1.8-2.6.2-.5.4-1 .5-1.5.2-.6.1-1.3-.2-1.9-.5-1.1-1.4-1.8-2.3-2.3l-1.2-.6c-.9-.8-2-1.5-3-2.2-.8-.5-1.6-.9-2.4-1.4 0-.3-.1-.7-.1-1l5.7 3.6v.1l.9.6c1.2.7 2.2 1.6 3.1 2.6.5.5.9 1 1.3 1.5.2.3.4.5.6.8 0 .1.1.1.1.2-.2.5-.5 1-.8 1.5-.4.7-.8 1.3-1.2 2-.9 1.3-1.8 2.5-2.8 3.7s-2.2 2.2-3.4 3.2-2.5 1.9-3.8 2.7c-2.7 1.7-5.6 3-8.5 4.5-.9.4-1.8.9-2.6 1.4v.1c-.6.3-1.1.7-1.6 1.1-.7.5-1.3 1.1-1.8 1.8s-.9 1.5-1.1 2.3c1-1.3 2.2-2.2 3.6-2.9 0 .2-.1.4-.1.6 0 .6.1 1.2.4 1.7l.1.1v.2l.1.1c.1.2.2.3.3.4.2.2.5.4.7.5 1 .5 1.8.6 2.7.8s1.7.4 2.5.6c.4.1.8.2 1.2.4l.3.1.1.1.1.1c.2.1.3.2.5.3.7.4 1.3 1 1.9 1.5 1.3 1.2 2.4 2.5 3.6 3.7 1.2 1.3 2.4 2.5 3.8 3.7.7.6 1.4 1.2 2.1 1.7s1.5 1 2.2 1.5c1.5.9 3 1.8 4.6 2.6s3.1 1.6 4.8 2.4l.7-1.8h-.1l.3-.6.3-.9.3-.9c.4-1.2.8-2.3 1.2-3.5.5-1.1 1-2.2 1.7-3.3s1.4-2.2 2-3.2c1.3-2.2 2.5-4.4 3.6-6.7.6-1.1 1.1-2.3 1.6-3.5.3-.6.5-1.2.7-1.8 0-.2.1-.3.1-.5s0-.4-.1-.6c-.1-.4-.5-.7-.8-.9-.6-.3-1.2-.5-1.6-.9-.4-.3-.8-.8-1-1.3-.5-1-.7-2.2-.8-3.5-.1-.6-.1-1.3-.2-1.9-.1-.7-.2-1.3-.4-1.9-.4-1.3-1.1-2.5-2.1-3.4-.5-.5-1.1-.8-1.7-1.1-.3-.1-.5-.3-.6-.5-.1-.1-.1-.1-.1-.2v-.4c.1-.4.7-.7 1.2-.8.6-.1 1.2-.1 1.7 0s1 .5 1.5.9.9.8 1.3 1.3c.8.9 1.4 2 1.6 3.1v.2l.2.2c.1.1.1.1.2.1s.1 0 .2.1h.3c.2 0 .3 0 .5-.1.3-.1.5-.2.7-.3.3-.3.6-.5.8-.8s.4-.5.6-.8c.1.1.3.1.4.2.5.2 1.2.1 1.6-.2.3-.2.5-.4.7-.7.1.3.3.6.5 1 .3.3.7.7 1.2.8h.8c.2 0 .4-.1.6-.2l.9-.6c.5-.5.8-1.1 1-1.7.4-1.2.3-2.5-.3-3.5-.2 1.1-.5 2.1-1 2.9-.3.4-.6.7-.9.9-.2.1-.3.2-.5.3h-.2c-.1 0-.1 0-.1-.1-.1-.1-.2-.3-.2-.5-.1-.4-.2-.9-.2-1.3v-1.6c0-.5 0-1 .1-1.5.1-1 .4-1.9.9-2.3.2-.2.5-.3.9-.3s.8.1 1.3.3c.9.3 1.6.9 2.1 1.6s.8 1.6.9 2.5c0 .1-.1.3-.2.4-.4.9-.8 1.9-1.4 2.7-.5.8-1.2 1.6-2 2.2-.4.3-.8.6-1.2.8s-1 .4-1.5.6c-2 1-3.4 3-3.5 5.2.8-1.9 2.1-3.6 3.9-4.5.2-.1.4-.2.7-.3.2-.1.5-.2.8-.3.5-.2 1-.5 1.4-.8.9-.7 1.6-1.5 2.2-2.4s1.1-1.9 1.5-2.8c.1-.2.1-.3.2-.5h.1v-.3c.1-.3.2-.5.3-.8s.2-.5.2-.8c.1-.3.1-.5.2-.7.3-.9.7-1.8 1.3-2.6s1.3-1.4 2.2-1.7c.2-.1.4-.1.6-.1h.5c.1 0 .2.1.3.2s.2.3.2.5c.2 0 .2.5.1 1zm-48.6 55.7c-.4.5-1 1-1.7 1.4-1.3.8-2.9 1.4-4.4 1.8-3.2.9-6.5 1.3-9.8 1.6s-6.7.3-10.1.2-6.7-.3-10.1-.6c-6.7-.7-13.4-1.9-19.8-3.9-3.2-1-6.4-2.1-9.3-3.7-1.5-.8-2.9-1.6-4.1-2.7-.6-.5-1.1-1.1-1.5-1.8-.4-.6-.6-1.3-.7-2s.1-1.5.5-2.2.9-.6.7-.2-.3.8-.3 1.2c0 .9.5 1.6 1 2.2s1.1 1.1 1.8 1.6c1.3.9 2.7 1.6 4.1 2.3 2.9 1.3 5.8 2.2 8.9 3.1 6 1.6 12.2 2.7 18.4 3.5 6.2.7 12.5 1.1 18.7.9 3.1-.1 6.3-.4 9.4-1 1.5-.3 3.1-.8 4.6-1.4.7-.3 1.5-.8 2.1-1.3.3-.3.6-.6.9-1.1.2-.4.4-.9.4-1.4 0-.3-.1-.6-.1-.8.7.8 1.1 1.8 1.2 2.7-.2.5-.4 1.1-.8 1.6zm-16.3 12.7c-.4 0-1.3 0-1.9-.1-.5-.1-1.1-.7-1.1-1.2 0-.4.4-1.3 1.6-1.4.3-.1 2.3-.3 3.3.1.8.3.9.7 1 1 .1 1.1-1.3 1.5-2.9 1.6zm-7.2 1.1c-2.2 0-4-.4-4-1.8 0-.4.4-1.1 1.9-1.6 1.1-.2 2.6-.2 3.6 0 1.3.3 1.8 1 1.9 1.3.1.6-.1 1.1-.7 1.5-.8.5-1.6.6-2.7.6zm-10 0h-1.4c-3-.1-5.5-.7-5.4-2.4 0-.5.9-1.3 2.1-1.8l3.3.3c1.3.1 2.7.2 4 .3.8.5 1.4 1.1 1.3 1.6-.2 1.6-1.7 2-3.9 2zm-11.4-2.1c-.4 0-.9 0-1.4-.1-1.9-.2-3.6-.6-3.9-1.9-.2-1.4.7-1.7 1.1-1.8 2 .4 4.1.7 6.3 1 .3.4.4.7.4 1-.1 1.4-1.1 1.8-2.5 1.8zm-7.2-2.8c-.3.2-.7.3-1.2.3-.6 0-1.3-.1-2-.3-1.4-.4-2.5-.7-2.7-1.6-.1-.2-.1-.5 0-.8 0-.2.2-.3.3-.5 1.2.3 2.5.6 3.7.9.7.2 1.5.3 2.3.5 0 .1.1.1.1.2 0 .8-.2 1.1-.5 1.3zm-17.2-21.5c.6-.5 1.2-.9 1.9-1.2 1.4-.6 2.9-1 4.4-1.4 3-.6 6.1-.9 9.2-1.1 6.2-.3 12.4 0 18.6.7 6.2.6 12.3 1.6 18.4 3.2 1.5.4 3 .8 4.5 1.3.5.2 1.1.4 1.6.6-.5-.2-1.1-.4-1.6-.6s-1-.3-1.4-.5l1.2.3c.9.3 1.8.6 2.7 1-.2-.1-.5-.2-.7-.3l1.5.6c.4.2.7.3 1.1.5 1.4.7 2.7 1.5 3.9 2.5.6.5 1.1 1 1.6 1.6.4.6.7 1.2.7 1.7 0 .6-.3 1.1-.8 1.5s-1.1.8-1.8 1.1c-1.4.6-2.8 1-4.3 1.3-3 .6-6.1 1-9.2 1.1-6.2.4-12.4.1-18.6-.5s-12.3-1.6-18.3-3.2c-3-.8-6-1.7-8.8-2.9-1.4-.6-2.8-1.3-4.1-2.2-.6-.4-1.2-.9-1.7-1.5s-.9-1.2-.9-1.9c-.1-.6.3-1.2.9-1.7zm32.3-8.4c0-.5.2-.9.3-1.3.4-.8.9-1.6 1.6-2.2s1.5-1.1 2.3-1.5c.9-.4 1.8-.6 2.8-.8.8-.2 1.7-.4 2.5-.7-.6.8-1.1 1.6-1.2 2.6-.1.7 0 1.4.2 2.1.1.3.3.6.5.9s.3.6.5.9c.7 1.2 1.5 2.2 2.1 3.4.4.9.7 1.5.9 2.2-3.3-.6-6.7-1-10-1.3-.8-.1-1.5-.1-2.3-.2 0-.1-.1-.3-.1-.3.2-1.5 1.6-1.9 2.1-2 1.5-.4 2.9-.2 4.2-.1.1 0 .2-.2 0-.2-1.2-.3-2.4-.5-3.6-.8-.9-.2-2.1-.4-3-.2.2-.2.2-.4.2-.5zm-.7-59.4c-.2-.5-.5-.9-.7-1.4v-.1c.3-.1.7-.1 1-.2 1.1-.3 2.1-.7 3-1.4s1.6-1.5 2-2.6c-1.5 1.5-3.4 2.2-5.3 2.5-1.9.2-3.9.1-5.6-.6-.9-.4-1.6-.9-2.3-1.6s-1.2-1.4-1.7-2.3c-.4-.9-.7-1.8-.9-2.8s-.2-1.9-.1-2.9c.2-2 1.1-3.9 2.4-5.4.7-.7 1.5-1.4 2.3-1.9.9-.5 1.9-.8 2.8-1.1 2-.5 4.1-.5 6.1.1s3.8 1.7 5.3 3.1c-.5-.7-1.2-1.3-1.9-1.9.3-1.2.9-2.5 1.7-3.4.8-1 1.9-1.8 3.2-2.3.6-.3 1.2-.4 1.9-.6.7-.1 1.3-.3 2-.3 1.3-.1 2.7-.1 4 .2 2.6.5 4.9 1.9 6.8 3.8.9.9 1.7 2 2.5 3.1.6 1 1.2 2.1 1.6 3.2-.5.1-.9.2-1.4.3 1.5.1 3 .1 4.4.3 1.5.1 2.9.3 4.4.5 1.4.3 2.9.6 4.2 1.1 1.4.5 2.7 1.1 3.9 1.8 1.2.8 2.3 1.7 3.2 2.7.9 1.1 1.5 2.3 1.9 3.6s.5 2.7.4 4-.5 2.7-1 3.9c-.6 1.2-1.3 2.3-2.3 3.2-.2.2-.5.4-.8.6-.1.1-.3.2-.4.2-.2.1-.3.1-.4.2-.6.3-1.2.5-1.9.7-1.3.3-2.7.5-4 .4-1.4-.1-2.7-.5-4-1.1s-2.5-1.4-3.5-2.4c-.5-.5-1-1-1.4-1.6s-.8-1.3-1.3-1.8c-1-1.2-2-2.2-3.2-3.2-1.2-.9-2.4-1.8-3.8-2.4 1.9 1.2 3.6 2.8 5.1 4.5-.6.6-1.1 1.3-1.5 1.9-.5.7-.9 1.5-1.2 2.3s-.6 1.6-.8 2.4c-.1.4-.2.8-.3 1.3 0 .2-.1.4-.1.5h-.2c-.7 0-1.4 0-2.1.1-1.3.2-2.6.5-3.9.9.2-.3.6-1.5-1.2-2.8-1.8-1.2-7.3-2.7-10.3 3.3-1.1-.5-2.3-.7-3.5-.6-.2-.8-.4-1.6-.6-2.3-.1-.5-.3-1-.5-1.5s-.3-1-.5-1.5c-.6-.8-1.1-1.7-1.5-2.7zm32.2 16.4c.5 0 .9 0 1.3.1.2.5.4 1 .5 1.5.2.8.4 1.7.5 2.5-.1 0-.1-.1-.2-.1l-3-1.5c1.1-.5.9-2 .9-2.5zm-2 1.5h-.1c-.3-.4-.5-.8-.6-1.3.1 0 .2 0 .2-.1.3-.1.5-.1.8-.1h.1c.2.5.3 1.3-.4 1.5zm.3-2.9c-.3 0-.6-.1-1-.1h-.6c-.2-.8-.3-1.7-.5-2.6.2 0 .5 0 .7.1.5.1 1 .3 1.4.5.9.5 1.6 1.3 2.1 2.2.1.2.2.4.4.7-.3-.1-.5-.2-.8-.3-.4-.3-1-.4-1.7-.5zm2.1-3c1.4.8 2.7.1 3.1-.2s-.8.6-1.8.6c-.2 0-.4 0-.7-.1s.8 1.3 2.1 2.5c.7.6 1.4 1.2 2.2 1.7.5.3 1 .5 1.5.6.4.1.8.4 1.1.7.6.6 1 1.5 1.1 2.3 0 .6-.2 1-.6 1.3.3-1.2-.1-2.7-2.3-3.4-1.5-.5-3.5-2.3-4.8-3.4 0 0 0-.1-.1-.1-.6-1-1.4-1.9-2.5-2.5-.5-.3-1.1-.5-1.7-.6-.4-.1-.8-.1-1.1-.1-.1-.2-.1-.4-.2-.6 2.6-.6 3.3.5 4.7 1.3zm35.3 19.5c0 .1 0 .2.1.3v.2c0 .1-.1.5-.7 1.1l-.3.3c-1-2-2.8-3.7-4.2-4.6 1.7-.5 3.2-1.3 4.1-1.9.1.1.2.2.2.4l.3.6.3.6v1.2c.1.6.1 1.2.2 1.8zm-9.2-5.6c.2-.3.5-.6.9-.9.3-.3.7-.5 1-.7l1.2-.5 4.7-2.2c.3-.1.6-.1.9 0s.6.3.8.5.4.5.5.8c.1.2.1.4.1.6 0 .1-.1.2-.1.3-.1.4-.2.8-.3 1.1 0 .1-.1.2-.1.4l-.6-.6-.6-.4-.6.4c-1.2 1-2.7 1.9-4.3 2.5-.8.3-1.6.4-2.3.4h-.3c-.1 0-.2 0-.3-.1-.2 0-.4-.1-.5-.2-.3-.2-.5-.3-.5-.6 0-.1.2-.5.4-.8zm10.7 3.9c0-.7.1-1.4.3-2.1.1-.7.3-1.4.5-2.1.1-.3.2-.7.3-1s.2-.6.4-.7c.1-.2.3-.3.4-.3s.3 0 .5.1.5.2.8.4c0 0 .1.1.2.1-.4.4-.6.9-.8 1.3-.2.6-.3 1.2-.4 1.8s-.1 1.2-.1 1.7v1.7c0 .3.1.6.1.9l-.1.1c-.3.2-.6.3-.9.4s-.4 0-.6-.1c-.1-.1-.1-.1-.2-.1 0-.1-.1-.2-.1-.3-.3-.4-.3-1.1-.3-1.8zm-87-29.3c-.3-.4-.6-.8-.9-1.3 0-.3-.1-.5-.2-.7 1 0 2 .2 2.9.4 1.2.3 2.3.7 3.3 1.3s2 1.3 2.8 2.1c.6.6 1.1 1.3 1.5 1.9-.3.1-.6.1-1 .1-.7 0-1.3 0-2-.1-1.3-.2-2.5-.6-3.7-1.3-.9-.5-1.9-1.4-2.7-2.4zm-11.7-12.4c-.1 0-.2-.1-.2-.1.1 0 .1 0 .2.1zm6.7 11c-2.3-1.6-4.7-3-7.2-4.2-3.1-1.4-9.5-3.3-9.5-3.3-2.8-5.3-7.5-3.9-9.1-2.7l-.3.3c-1.4-.2-2.7-.3-4.1-.3-1.6 0-3.2 0-4.7.1-2.9.3-5.8.8-8.6 2 .5-2.5 1.3-5 2.5-7.3 1.3-2.5 3-4.8 5.1-6.5 2.1-1.8 4.6-3.1 7.3-3.7 2.7-.7 5.5-.8 8.3-.5s5.5.8 8.1 1.9c2.6 1 5 2.5 7 4.3s3.8 4 5 6.5c.6 1.2 1.2 2.5 1.6 3.8.2.6.4 1.3.5 1.9-.2-.1-.5-.3-.7-.4-.9-.5-1.8-.9-2.7-1.2-1.8-.7-3.6-1.3-5.5-1.7 1.1.9 2.2 1.8 3.2 2.8s1.9 2.1 2.6 3.2c.8 1.1 1.4 2.3 1.7 3.5.1.4.2.8.2 1.1zm-41.7-3.9c.7.3 1.3.8 1.5 1.6.2.5.2 1 .2 1.6l-.3-.6c-.2-.2-.4-.4-.6-.5s-.5-.2-.8-.2c-.9-.1-1.9.1-2.6.7-.8.6-1.3 1.4-1.7 2.2-.1.2-.2.4-.2.5-1.5.9-5.7 3.7-2.6 5.3h-.1c-.6.2-1.1.4-1.7.6-2.7-1.2-2.6-4.5 1.1-5.8 2.5-.9 3.9-2.4 4.4-3.1 1-.3 2.4-1.1 3.4-2.3zm1.2 4.8c0 .1 0 .1 0 0-1.4.1-2.8.4-4.1.8-.4.1-.7.2-1.1.4.1-.3.2-.6.3-1 .3-.8.7-1.5 1.3-2.1.6-.5 1.5-.8 2.3-.8.2 0 .5.1.7.1.2.1.4.2.6.4s.3.4.4.6c0 .7-.2 1.2-.4 1.6zm-1.8 2.4c-.3-.3-.2-1-.1-1.3h1.3c-.4.4-.8.9-1.2 1.3zm-3.4 2.2c-.1.1-.3.1-.4.2 0-.7 0-1.4.1-2.1 0-.4.1-.8.2-1.1.4-.1.9-.2 1.3-.3.2 0 .3 0 .5-.1-.1.5-.1 1.5.4 2.1-.6.5-1.3.9-2.1 1.3zm3.7 58.8c.1.4 1.6 1.2 2.3 5l.6 2.7c.7 3.1 1.4 6.3 2 9.4-1.9 1.5-4 2.9-6.3 3.9-1.1.5-2.2 1-3.4 1.4-.8.3-1.7.6-2.5.8.1-.6.2-1.1.4-1.7.2-.7.5-1.5.8-2.2l.3-.6.2-.3-.3.2c-.7.3-1.3.8-1.9 1.3s-1.1 1-1.7 1.5c-.8.7-1.5 1.5-2.2 2.3v-.2l-.3-1.3-.7-2.7-1.4-5.3c-1-3.6-2.3-7.1-3.7-10.5-1.5-3.4-3.2-6.7-5.1-9.9l-.3-.6c-.1-.2-.2-.4-.4-.6-.3-.4-.8-.7-1.2-.9-.9-.5-1.8-.7-2.7-1l-1.3-.3c-.4-.1-.9-.2-1.2-.4-.9-.4-1.7-.7-2.6-1-1.8-.6-3.5-1.2-5.4-1.5-.5-.1-1-.1-1.4-.1h-1.4c-.9 0-1.9.1-2.8.2-.5.1-.9.1-1.4.2H73s-.2-.2-.1-.5c0-.3.2-.5.5-.8.5-.5 1.3-.7 2.1-.9l2.1-.3 3.2.1 1.8.1c.3 0 .6.1.8.1.8.2 1.7.4 2.7.6.9.2 1.9.3 2.9.3s1.9 0 2.9-.2c.5-.1.9-.2 1.3-.2h1.2c.7.1 1.4.4 1.8.9.2.2.4.5.6.9.1.2.2.3.2.5 0 .1.1.2.1.3v.7c0 .2.1.3.1.5l.3.9c.2.6.4 1.1.7 1.7.5 1.1 1.1 2 1.8 3 1.3 1.9 2.8 3.6 4.2 5.3s2.7 3.5 3.9 5.4c.6.9 1.1 1.9 1.6 2.9.2.5.5 1 .7 1.5.1.3.2.5.3.8.1.2.2.5.2.7l.2 1.8 1.2-1.3c.6-1 3.6-5.1 6.6-12.6zM64.8 75.7l-.9-4.8c3.7.6 7.3 1 11 1.4 3.9.4 7.7.7 11.6.9 7.5.4 15 .5 22.5.2l-1.1 3-12.6-.2h-.2l-3.8-.2h-.4l-7-.1c-.1 0-.2 0-.4-.1-1-.1-1.9-.2-2.9-.2h-3.1c-.3 0-.5 0-.8.1zm-1.7-5.4c-1.1 0-2.2-.1-3.2-.5-.5-.2-1-.6-1.2-1.1-.3-.5-.3-1.1-.2-1.6.1-.6.3-1.1.5-1.6.3-.5.7-.8 1.2-1 1-.3 2.2.2 3.1.7l1.2.8-.5-1.5c-.2-.6-.3-1.4-.2-2.1.1-.6.5-1.1 1.1-1.4.1-.1.3-.1.4-.2h.4c.3 0 .6 0 .8.1.5.2.9.8 1.2 1.4.6 1.3.9 2.8 1 4.3.1 1.4 0 2.8-.1 4.2-1.6-.2-5.5-.5-5.5-.5zM69 55.2c.3-.1.7-.1 1-.1 2.5 0 5.9 1.4 7.9 3.5l.4.4c-.1.2-.2.3-.3.5-.3.8-.1 1.7.2 2.4.2.4.4.8.7 1.2-.3.3-1 .6-1.7.6-4.7.2-8-1.9-9.5-4.5-1.7-2.9.4-3.8 1.3-4zm9.9 4.6c.1-.5.6-1 1.2-1.2s1.3-.3 2-.3c2.7.2 5.4 1.4 7.4 3.4.5.5.9 1.1 1.1 1.7s.3 1.3.1 1.7c-.2.5-.6.8-1.2 1.1-.1.1-.3.1-.4.1-.2 0-.3.1-.5.1h-1c-1.3-.1-2.6-.6-3.8-1.2s-2.3-1.4-3.2-2.3c-.5-.5-.9-.9-1.2-1.4-.4-.6-.7-1.1-.5-1.7zm12.2 6.3c.2-.2.3-.4.4-.7.1-.4.1-.8 0-1.2.7 1.1 1.5 2 2.4 3 1 1.1 2.2 2.1 3.4 3s2.6 1.7 4.1 2.2c.1 0 .1.1.2.1-3.6 0-7.2 0-10.8-.1zm3.3-4c.6-.1 1.2-.1 1.8-.1 1.8.1 3.3 1 4.5 2.3l.1.1c-.9-.1-1.7-.1-2.5.2-1.3.4-2.5 1.3-3.1 2.5.3-.6.8-1.1 1.3-1.5s1.2-.7 1.8-.8c1-.2 2-.2 2.9.1.7.8 1.5 1.6 2.2 2.4-.8 0-1.7 0-2.5.3-.7.2-1.3.5-1.8.9-.4.3-.7.7-1 1.1-.1 0-.1-.1-.2-.1-1.2-.7-2.4-1.6-3.5-2.6-1.1-.9-2.1-2-3-3.1.6-.6 1.7-1.3 3-1.7zm10.1 6.2c.7.7 1.4 1.3 2.2 1.9.4.3.9.5 1.4.7-.2.1-.3.2-.5.2-.5.2-1.1.2-1.7.3h-.7c-1.1 0-2.2-.2-3.3-.5-1.3-.4-2.5-.9-3.7-1.6.3-.4.6-.7 1-1 .6-.4 1.2-.6 1.8-.7.9-.2 1.9-.2 2.8-.1.3.4.5.6.7.8zm166.8-17.1c-.4-.8-1.2-1.3-2.1-1.3h-.4c-2.7.3-4.4 3-5.1 4.9-.7-1.1-1.8-2.2-3.7-2.8-.1 0-.2 0-.2-.1-.1 0-.3-.1-.5-.1s-.3 0-.5-.1c-.3 0-.6 0-.9.1-.1-.1-.3-.3-.4-.3-.6-.5-1.1-.8-1.6-.9-.4-.2-.9-.3-1.5-.1-.3.1-.5.2-.7.3-1-1.4-2.2-1.6-2.9-1.6-.5 0-.8.1-.9.1h-.1s-3.6 1.6-5.7 2.6c-1.8.7-3.5 2.4-3.3 4 0 .4.2 1 1 1.5-.3.1-.5.3-.6.5-.4.5-.6 1-.5 1.6.1.9.8 1.3 1.5 1.7 1.3.8 3 1.8 3.3 6.5.4 5.3 2.3 6.6 4 7.3.3.1.6.2.6.3.1 1.5-4.4 10.3-8.1 15.3-.7 1-1.3 2-1.8 2.9 0 .1-.1.1-.1.2-.7 1.1-1.3 2.3-1.7 3.6l-.3.9c-.1.3-.2.6-.2 1v.6c-2-.8-5.7-2.5-9.3-4.9-2.6-1.7-4.9-4.3-7-6.5-2.2-2.4-4.1-4.4-5.9-5.2-1.4-.6-2.7-.9-3.9-1.2-1.5-.3-2.9-.7-3.2-1.3-.4-.8.1-2 .5-2.6 1-.5 2-.9 3.1-1.4.8-.4 1.7-.8 2.7-1.2.2-.1.4-.2.6-.2 1.5-.7 3-1.4 4.5-2.2s2.9-1.8 4.2-2.8c1.4-1 2.6-2.2 3.7-3.4s2.2-2.6 3.1-4c.5-.7.9-1.4 1.3-2.2.2-.4.4-.8.6-1.1.2-.4.3-.8.5-1.2l.2-.7-.4-.5c-.3-.4-.5-.6-.8-.9l-.8-.8c-.5-.5-.9-.9-1.4-1.3-1-.9-2.2-1.9-3.6-2.6-.2-.1-.4-.2-.5-.3.6-.7.8-1.7.6-2.8-.3-1.7-1.7-3.7-3.6-3.9-2-.2-3.5-1.6-4.4-2.7.7-.2 1.2-.5 1.3-.6.3-.2.4-.6.3-1s-.4-.6-.8-.7c-1.4-.2-1.8-.6-2.6-1.4-.5-.5-1.1-1.1-2.1-1.8-1.2-.8-2.6-1.2-4.2-1.2h-.9c.3-1.5 1-3.9 2.8-5.9.4.5.7 1 1 1.6 2 3.3 5.5 5.6 9.3 6.3.1 0 .3.1.4.1 1.6.3 3.2.2 4.8-.1.8-.2 1.6-.4 2.3-.8l.6-.3.6-.3c.4-.2.7-.5 1-.8 1.3-1.1 2.2-2.5 2.9-4s1-3.1 1.1-4.7v-.7c0-5-2.9-9.2-7.8-11.7-4.7-2.3-9.7-2.8-13.1-2.8h-.8c-.4-1-1.4-3-3.1-5.1-3.1-3.8-7.1-5.8-11.5-5.8-1.4 0-2.8.2-4.3.6-4.5 1.2-6.2 4.3-6.8 6.1-1.4-.8-3.4-1.4-5.7-1.4-1.8 0-3.6.4-5.5 1.2-4.5 1.9-7.2 6.7-6.5 11.6.2 1.1.5 2.2.9 3.2 0 .1.1.2.1.2 0 .1.1.2.1.3v.1c.5 1 1.2 2 2 2.8l.1.1c.1.1.3.2.4.4.1.1.3.2.4.3l.1.1c1.5 1.1 3.3 1.7 5.4 1.8.8 1 3.2 4.4 3.7 9.2v.5c-.3.1-.5.2-.8.3-.1 0-.2.1-.4.2-.1 0-.2.1-.3.1l-.6.3-.3.2-.3.2c-.1.1-.3.2-.4.2-.9.5-2 .9-3 1.3-3.3 1.3-7.1 2.9-6.4 7v.2c0 .1.6 1.7 2.5 2.5-.1.1-.2.1-.3.2-4.6 2.4-7.1 5.3-7.7 8.6 0 .3.1.6.3.8s.4.3.6.3h.2s.8-.2 1.9-.3c-.2.1-.4.3-.6.5l-.7.7.5.6c.6.7 1.1 1.3 1.7 1.9.3.3.6.6.8.9 1 1.1 2.4 2.5 4.2 3.9 3.9 3.2 10.6 7.3 19.9 9.1.3.5.7 1.8-.3 2.6-.2.2-.5.3-.8.5-.8.3-1.7.5-2.7.6-1.2.2-2.5.4-3.8 1-3.2 1.4-4.8 4.1-5 6.2-.1 1.3.1 3 .2 4.2-1.1-.1-2.3-.2-3.4-.2-3.9-.2-7.7-.3-11.6-.1-.7-.9-1.8-2.3-2.4-3.1-2.6-3.6-4.6-6.4-6.1-8.5-.8-1.1-1.5-2.2-2.3-3.4-.2-.2-.3-.4-.5-.7-.2-.2-.4-.4-.5-.6-.4-.4-.7-.8-1.1-1.2-.8-.7-1.6-1.4-2.6-2l-1.8-.9c-1-.5-2.1-.8-3.2-.8-3.2-.2-3.5-1.3-3.6-1.4-.3-2.7 4-9.3 5.9-11.9.8-.3 1.5-.7 2.2-1 .8-.4 1.7-.8 2.5-1.2 1-.5 1.9-1.1 2.8-1.6l2.7-1.8c.9-.6 1.8-1.3 2.6-2.1l1.2-1.2c.2-.2.4-.5.6-.7.1-.1.2-.3.3-.4l.1-.2.1-.1v-.1l.1-.1.3-.7-.3-.7c-.1-.2-.2-.3-.3-.5l-.3-.4c-.1-.2-.3-.3-.4-.5 1.1 0 2-.4 2.7-1 .1-.1 1.6-1.5 1.6-4.1 0-.5 0-.9-.1-1.4 2 2.2 4.8 2.8 4.8 2.8-.4-2.9-1.9-4.7-3.4-5.8.8.2 1.6.4 2.4.4.8.1 1.5.1 2.3 0 .4 0 .7-.1 1.1-.2s.7-.2 1.1-.3l.9-.3-.5-.7c-.7-1.1-1.6-2-2.6-2.8s-2.1-1.5-3.2-2-2.4-.8-3.6-1c-1-.1-2-.2-3-.1-.2-.7-.5-1.4-.8-2-.8-1.4-1.8-2.6-2.8-3.6-.5-.4-1-.9-1.5-1.3l-.2-.2c1.5.8 2.5 1.5 3.2 2 .1.1.2.1.2.2l.4.4 1.8 2.3-.1-3c0-.9-.1-1.6-.3-2.3s-.4-1.5-.6-2.2v-.1c-.7-2.2-1.9-4.9-4-7.5C156.5 6 150.2.9 139.2.4h-1.4c-10.1 0-15.6 5.5-18.4 10.2-3 5-3.6 9.9-3.6 10.1 0 .3.1.6.3.8-.4.6-.9 1.2-1.1 2.1-.9 2.8-1.5 4-2 4.3-.6.4-1.3.8-2.2 1.1-2.7 1-3.6 2.8-3.5 4.3 0 1 .5 1.9 1.3 2.5-3.1 1.4-5.2 2.5-6.2 3.1-.2.1-.3.1-.5.2-2.4-.1-3.9.7-4.6 1.9-.8 1.4-.1 2.9.3 3.7.6 1.2 2.6 3.6 5.3 4.8.4.2.8.3 1.3.4.1.1.2.3.3.4.2.2.3.4.5.6.4.4.7.8 1.1 1.2.8.7 1.7 1.4 2.6 1.9.6.4 1.2.7 1.9 1 1.5.8 3.3 1.5 5.5 2 .3.3.6.5.9.8.4.3.7.5 1.1.8.8.5 1.6.9 2.4 1.3.1.1.3.1.4.2 1.5.7 3.4 1.3 5.6 1.6.2.1.9.2 1.8.5.4.2.9.4 1.3.7 1 .5 2 1.2 2.9 1.9.5.4 1 .9 1.4 1.4v.7c-.1.8-.6 1.9-1.9 2.6h-.1c-.4.2-.8.3-1.2.4-4.4 1-5.7 4-6.9 6.9-.2.4-.3.7-.5 1.1-.6 1.3-1.1 2.5-1.6 3.5-.5.9-1 1.9-1.5 2.8-.1.1-.2.2-.2.3-1.1 1.4-2 2.9-2.5 4.6l-.3.9c0 .1-.1.9-.1.9s.8.3 1 .5c-1.5 3.5-3.7 8.9-5.9 11-.8-1.7-2.7-5.2-7.2-10.6-3.1-3.8-4.7-6.7-5.5-8.7-.1-.3-.2-.6-.2-.8-.2-.3-.3-.5-.3-.8v-.8c0-.2-.1-.3-.1-.5 0-.1-.1-.3-.1-.4-.1-.3-.2-.5-.3-.8l-.6-.9s-.1-.1-.1-.2l11.1.3h.7l.1-.4c.1-.1.1-.2.2-.3l1.2-4.5c.1-.3 0-.6-.2-.8-.1-.1-.2-.2-.4-.3.5-.8.6-1.5.6-1.5V70l.1-.8h-1.1c-.8 0-1.4-.2-2.1-.6-.6-.4-1.2-.9-2.1-1.8-.7-.6-1.4-1.4-2.7-2.6l-.8-.8c-1.7-1.7-3.7-2.6-5.8-2.6s-3.9.9-5 1.6c-.3-.5-.7-1-1.2-1.4-2.2-2.2-5.7-3.7-8.6-3.7-.4 0-.8 0-1.2.1-.7.1-1.3.4-1.7.7l-.2-.1c-2.2-2.2-5.7-3.7-8.6-3.7-.4 0-.8 0-1.2.1-1.4.3-2.3 1-2.7 2-.3.7-.2 1.5.1 2.4-1.6.3-2.8 1.1-3.4 2.3-.4.8-.5 1.6-.5 2.3-.4-.1-.9-.2-1.4-.2-1.1 0-2.9.4-3.6 3.2-.3 1.4-.1 2.5.6 3.4 1.1 1.4 3.1 1.7 4.7 1.7h.1l.8 4.9c.1.4.4.8.9.8l7.7.2c-1 .8-1.3 1.9-1.2 2.6.1.9.7 1.5 1.5 1.6h.5c.5 0 1.1-.1 1.9-.2 1.1-.2 2.5-.3 4.1-.3h.2c2.7 0 7.3 1.7 9 2.4.5.2 1.1.4 1.9.5 1.5.4 3.8.9 4.3 1.9.1.2.2.4.4.7 1.6 2.8 5.9 10.1 8.5 19.9 2.5 9.4 2.7 10.7 2.8 10.9 0 .4.3.7.6.8h.3c.3 0 .6-.1.7-.4.8-1.1 1.8-2.3 2.8-3.3-.2.5-.3 1-.4 1.5 0 .1-.1.2-.1.3 0 .3.1.6.3.8s.4.3.6.3h.1c.3 0 6.4-1.1 13.1-5.6v.1c0-.1 1.2 6 1.6 9.3.4 3.6.7 7.2.8 10.8l2-.1c-.3-3.7-.7-7.3-1.3-10.9s-1.3-7.2-2.1-10.7c-.8-3.6-1.6-7.1-2.5-10.6l-.6-2.6c-.1-.4-.2-.9-.3-1.3-.1-.5-.2-.9-.3-1.4-.3-.9-.7-1.8-1.2-2.6-.3-.4-.6-.8-.9-1.1-.2-.2-.4-.3-.6-.5.8-1.5 1.6-3 2.7-4.4.2-.2.3-.4.5-.6s0-.1.1-.1c1-1.2 2.1-2.3 3.3-3.4.7-.6 1.5-1.3 2.2-2l2.1-2.1c.7-.7 1.3-1.5 1.9-2.3s1.2-1.6 1.6-2.5l-.1-.1c-1.2 1.6-2.6 2.9-4 4.2-.7.6-1.5 1.3-2.2 1.9-.8.6-1.5 1.2-2.3 1.8-.3.3-.7.5-1 .8.2-.6.5-1.3.7-1.9l1.1-2.9c.4-.9.8-1.8 1.4-2.6s1.3-1.4 2.2-1.9c.4-.2.9-.4 1.4-.6.4-.1 1-.2 1.5-.4 1-.4 2-1 2.7-1.9.2-.3.4-.5.5-.8.3.8.4 1.6.6 2.5.7-1.1.9-2.6.6-4s-1.2-2.6-2.2-3.6c-.8-.7-1.6-1.3-2.5-1.8 1.6-.2 3.2-.6 4.6-1.3-1.8 0-3.4.2-5.1.2s-3.3-.1-5-.5c-1.6-.3-3.2-.9-4.6-1.6-.6-.3-1.1-.6-1.6-.9h1.1c2.1 0 4.1-.2 6.2-.4 4.1-.4 8.1-1.7 11.6-3.7 1.8-1 3.5-2.2 5.1-3.5.8-.7 1.5-1.4 2.4-2l1.2-.9c.3-.2.7-.4 1-.2s.4.6.6.9c.3.5.5 1.1.7 1.7.2-.6.2-1.3.1-2s-.4-1.3-.9-1.8c-.3-.4-.7-.7-1.1-1 0 0-.4-.2-.5-.3-.6-.2-1.3-.4-2-.1.3.2.7.3.9.7.4.7-.4 1.7-.8 2.3-.6.8-1.3 1.5-2 2.3-1.4 1.4-3 2.7-4.7 3.8-3.5 2.1-7.5 3.3-11.5 3.6-2 .2-4.1 0-6.1-.3-1.2-.2-2.3-.4-3.5-.7l-.1-.1c-.8-.2-1.5-.4-2.2-.6-1.9-.6-3.6-1.5-5.3-2.5-.8-.5-1.6-1.1-2.3-1.8l-.8-.8c.9-.1 1.8-.4 2.5-.9.8-.5 1.4-1.1 2-1.7.6-.7 1.1-1.4 1.5-2.1.5-.7.8-1.6.7-2.5s-.8-1.6-1.5-2.1-1.5-.9-2.4-1.1c-1.4-.5-2.8-.7-4.2-.8.1-.1.3-.2.4-.3.5-.3 1-.6 1.6-.9.5-.3 1.1-.5 1.6-.8l3.3-1.5c.5-.2 1.1-.4 1.7-.7.6-.2 1.1-.5 1.7-.7.8-.4 1.6-.8 2.3-1.3h.1v-.1c.2-.2.5-.3.7-.5.4-.3.8-.7 1.2-1.1.5-.1.8-.3 1.2-.4.5-.2 1-.3 1.5-.4 1-.1 2.1.1 3.1.5-.4-.4-.9-.6-1.4-.8s-1.1-.3-1.7-.3-1.1.1-1.7.3c-.1 0-.1 0-.1.1.1-.2.3-.4.4-.6.6-1.1 1.1-2.3 1-3.7 0-.7-.2-1.4-.5-2.1-1.2-2.8-2.1-2.5-3.1-2.9l-.1-.2c2.5-.9 5.1-1.4 7.7-1.7 1.5-.1 3.1-.2 4.7-.1 1.2 0 2.4.1 3.6.2-.7 1.1-.1 1.9-.1 1.9.2.7 2-.2 2-.2 5.2-2.4 8.9 1.9 8.9 1.9l-.6-1.5c3.1 1 6.1 2.3 9 3.7 3 1.5 5.8 3.3 8.3 5.4 1.2 1.1 2.4 2.3 3.3 3.6s1.7 2.7 1.9 4.2c.1.7 0 1.5-.2 2.1-.1.3-.3.7-.4 1-.1.2-.3.4-.4.6.2-.4.3-.8.3-1.2 0-.5-.1-1.1-.2-1.6-.2-.5-.4-.9-.7-1.3-.6-.8-1.3-1.4-2-1.9-1.5-1-3.1-1.8-4.7-2.4s-2.8-1.9-3.5-3.5c-.2.8-.1 1.7.3 2.5.3.8.9 1.5 1.5 2s1.2 1.1 1.7 1.8c.3.4.6.7.8 1.1-.8-.1-1.7-.2-2.5-.2-.6 0-1.2 0-1.8.1l-1.8.3-.9.2.9.4c2.1.9 4 2.2 5.6 3.7.8.8 1.5 1.6 2.1 2.5.3.4.6.9.9 1.4.1.2.2.3.3.5-.1.1-.2.2-.3.4-.3.4-.6.7-1 1.1-.7.7-1.5 1.4-2.3 2-1.6 1.3-3.3 2.6-5 3.7s-3.5 2.2-5.4 3.1-3.8 1.7-5.8 2.5c1.1.1 2.2-.1 3.2-.2.6-.1 1.1-.2 1.7-.3-.6 1.1-1.3 2.2-1.9 3.3-1 1.8-2 3.7-2.6 5.8-.1.5-.3 1.1-.3 1.6v.4c0 .1 0 .4.1.5.1.3.3.6.5.8.4.5 1 .8 1.5 1 .4.2.8.3 1.1.4-.1 0-.1.1-.2.1-.6.4-1 1-1.2 1.7-.1.3-.1.7-.2 1 0 .3-.1.7-.1 1-.1.6-.4 1.2-.7 1.8-.7 1.2-1.4 2.4-1.9 3.7s-.8 2.6-1 4c-.4 2.7-.2 5.5-.3 8.2v3c0 .3-.2 1.7-3 .6-.8-.4-1.7-.8-2.5-1.1l-3.6-1.2c-1.2-.3-2.4-.6-3.7-.8 1.2.4 2.4.8 3.5 1.3s2.3.8 3.5 1.3c4.6 2.3 6.7 5.2 6.7 5.2-.1-2-.4-5.1-.4-5.4l-.1-1v-2c0-2.7.3-5.4.7-8.1.2-1.3.5-2.6.9-3.9.2-.6.5-1.2.8-1.8l.9-1.8c.3-.6.6-1.3.7-2 .1-.3.1-.7.1-1s0-.7.1-1c.1-.6.5-1.2 1-1.6.1-.1.2-.2.3-.2h.2c.3.1.5.1.8.1s.5.1.8.1c.4.1.9.2 1.3.4.9.3 1.7.9 2.4 1.4.8.6 1.5 1.2 2.2 1.9.3.3.7.7 1 1.1s.6.7.9 1.1c.5.7 1.1 1.4 1.6 2.1-.9-.2-1.7-.3-2.6-.3-.6 0-1.2.1-1.7.2-.6.1-1.1.3-1.6.5-1 .4-2 1-2.8 1.8 1-.4 2.1-.7 3.1-.9.5-.1 1-.1 1.5-.2h1.5c1 .1 1.9.4 2.8.8 1.6.7 2.7 1.7 3.8 3-1.1-.4-2.2-.6-3.4-.6-.7 0-1.3 0-2 .1-.6.1-1.3.2-1.9.4-1.2.4-2.4.9-3.4 1.6 1.2-.3 2.4-.5 3.6-.6.6 0 1.2-.1 1.8-.1s1.2.1 1.7.2c1.1.2 2.3.5 3.3 1 .5.2 1 .5 1.5.7.4.2.9.3 1.3.6s.7.8 1.1 1.2c.6.7 1.3 1.4 1.9 2.1h-.3c-3.4.2-6.8.6-10.1 1.5-1.6.5-3.3 1.1-4.7 2-.7.5-1.4 1-2 1.7s-1.1 1.6-1.2 2.5v.9c-2 1-3.2 2.2-3.4 3.6v.5c.1 3.5 6.6 7.2 16.6 10.1-.1.2-.2.4-.2.6-.1.6-.1 1.1 0 1.6.5 2.1 2.7 2.6 4.1 3 .9.2 1.7.4 2.4.4.6 0 1.1-.1 1.5-.2.6 1.2 2 2.3 5.3 2.6.5 0 1 .1 1.6.1 1.3 0 2.3-.3 2.9-.8.3.8 1 1.6 2.5 2.1.8.3 1.7.5 2.9.6.7 1.2 1.1 2.3 1.3 3.9.1 1 .2 1.9.3 2.9v.3h.3V128.4c0-1.7-.1-2.2-.2-3.7h1.4c1 0 3.6 0 4.9-1.7.4.4.9.9 1.8 1.1.2.1.5.1.8.2l.3 1.5c.1.6.2 1.3.3 1.9s.2 1.3.2 1.9c.1.6.1 1.3.2 1.9h.2c-.1-.6-.1-1.3-.2-1.9 0-.6-.1-1.3-.1-1.9s-.1-1.3-.1-1.9v-1.3c.6.1 1.2.1 1.9.1 1.4 0 3.3 0 4.5-1 .5.1 1 .1 1.3.1.4 0 .9 0 1.3-.1 1.2-.1 2.1-.3 2.8-.7 1.3-.6 2-1.8 1.8-3.1 0-.3-.1-.6-.2-.8 4-.4 7.4-1 10.2-1.8-.1.3-.1.5-.2.8 4.1-1.1 7.2-2.7 7.9-5.1.3.1.6.3.9.4.2.1.5.2.7.3 4.7 2.4 11.1 4.4 11.2 4.4h.3c.2 0 .3-.1.5-.1l.4.1-.2-.4c.2-.3.2-.6.1-.9-.1-.2-.1-.3-.2-.5.7.7 1.2 1.1 1.2 1.1.1.1.3.2.5.2.1 0 .3 0 .4-.1.3-.2.5-.5.5-.8 0 0 .2-3.9 3.4-11 4.5-9.9 9.1-26.6 9.1-26.8v-.1c.4-2 1.9-2.9 1.9-2.9.5-.3 1-.6 1.4-.8 1.9-1 3.3-1.9 4.9-4.9.4-.8.8-2.1 1.3-3.8.9-2.8 2-6.6 3.4-8.4s2.6-4.9 1.8-6.7z"/><path d="M69.7 59.1c.6.8 1.4 1.4 2.2 1.8.9.5 1.8.8 2.8.8 1 .1 2-.1 2.8-.7h-.2c-.4.2-.8.4-1.3.4-.4.1-.9.1-1.4 0-.9-.1-1.8-.4-2.6-.8s-1.6-.9-2.2-1.6-.9-1.6-.7-2.5c-.2.4-.3.9-.2 1.4.3.4.5.8.8 1.2zm12.1 3.4c.6.8 1.5 1.4 2.4 1.8s1.8.8 2.8 1c.5.1 1 .1 1.5 0s1-.4 1.3-.9l-.2-.1c-.2.4-.7.6-1.1.6-.5.1-.9 0-1.4-.1-.9-.2-1.8-.6-2.7-1s-1.7-.9-2.3-1.6c-.3-.3-.6-.7-.8-1.2-.2-.4-.3-.9-.3-1.4-.1.5 0 1 .1 1.5s.4 1 .7 1.4zm59.8 55.9c-.1-2.2-.1-4.3-.3-6.5-.1-2.2-.2-4.3-.4-6.5-.1 2.2-.1 4.3-.1 6.5s0 4.3.1 6.5c0 2.2.1 4.3.2 6.5s.2 4.3.4 6.5h.2c.1-2.2.1-4.3.1-6.5s-.1-4.3-.2-6.5zm-12.5-79.1c-.1-1.2-.1-2.4 0-3.6.1-1.1.2-2.1.5-3.2.4-.2.8-.4 1.3-.6.6-.2 1.2-.5 1.7-.6 1-.3 2-.5 3-.6-.1 1-.1 3.2 1.8 3.4 2.5.3 2.7-3.1 2.7-3.1s-.4 1.8-1.7 1.5c-1-.2-.8-1.4-.6-2h2.3c.5 0 .9.1 1.4.1.1.8.2 1.6.2 2.4 0 1.3-.2 2.7-.4 4-1.1 0-2.2.1-3.3.2-1 .1-1.9.3-2.9.5s-1.9.5-2.8.8-1.9.6-2.8.8zm2.5-11c.8-1 1.9-1.8 3.1-2.2.3-.1.6-.2.9-.2.3-.1.6-.1.9-.1.6 0 1.3.2 1.9.4 1.2.5 2.1 1.6 2.5 2.8.1.3.2.7.3 1-1.7-.3-3.4-.4-5.1-.4-1.3.1-2.6.3-3.9.6-.6.2-1.3.4-1.9.7-.2.1-.3.1-.5.2.6-.9 1.1-1.9 1.8-2.8zm.7 10.5c.9-.3 1.8-.6 2.8-.8s1.9-.4 2.9-.5c1.3-.2 2.7-.3 4.1-.3h1.8c1 0 2 0 2.9-.2 1-.2 1.9-.5 2.7-1-.8.5-1.8.8-2.8.9-1 .2-1.9.2-2.9.2-.6 0-1.1-.1-1.7-.1.1-1.3.2-2.7.2-4 0-.8-.1-1.6-.2-2.4.6.1 1.2.1 1.9.2-.6-.2-1.3-.4-1.9-.6-.1-.5-.2-.9-.4-1.4-.3-.7-.6-1.3-1.1-1.9s-1-1-1.7-1.4c-.7-.3-1.4-.5-2.1-.6h-1.1c-.4.1-.7.1-1.1.2-1.4.4-2.7 1.2-3.6 2.3-1 1.1-1.7 2.4-2.2 3.7s-.8 2.7-1 4.1-.3 2.7-.3 4.2h-.1c-.1 0-.2.1-.4.1l-.2.1h-.1c.9 0 1.9-.1 2.9-.3.8.2 1.7-.2 2.7-.5zm18.6 5.6c.7 1 1.1 2.2 1.3 3.4.1-1.3-.2-2.6-1-3.7-.4-.5-.8-1-1.4-1.4-.6-.3-1.2-.6-1.8-.6.6.2 1.1.6 1.6.9.5.5.9.9 1.3 1.4zm36.8-23.8c-4.9 6.3-15.2.7-12.7-6.8 0 0-.1-.1-.1 0-1.2 3.4.3 7.3 3.2 9.2 3.3 2.1 7.9 1.2 9.7-2.3.1-.1 0-.2-.1-.1zm-4.6 34.2c-.9.8-1.7 2-1.9 3.3-.1.6-.1 1.3 0 2 .2.6.4 1.2.9 1.7-.3-.6-.4-1.2-.5-1.8s-.1-1.2 0-1.8c.2-1.3.8-2.4 1.5-3.4zM208.3 71c1.2.1 2.5 0 3.7-.2s2.4-.6 3.4-1.3c-.6.2-1.1.4-1.7.6s-1.2.3-1.8.3c-1.2.2-2.4.2-3.6.1s-2.4-.3-3.6-.6-2.3-.7-3.4-1.2c1.1.6 2.2 1.1 3.4 1.5 1.2.5 2.4.7 3.6.8zm-19.2-23.8c.1-.7.3-1.3.5-1.9 0-.1.1-.3.1-.4 1.8-.1 3.6-.1 5.4.2.2.6.6 2.1-.6 2.3-1.4.3-1.8-1.6-1.8-1.6s.3 3.6 2.9 3.3c1.9-.3 2-2.3 1.9-3.4.4.1.7.2 1.1.4.6.2 1.1.5 1.6.8.3.1.5.3.7.5.2.1.4.3.6.5 0 .3.1.7.1 1v2c0 1.2-.1 2.4-.2 3.6-.3-.1-.6-.1-.9-.2-1.8-.4-3.7-.6-5.6-.9-.9-.2-1.8-.3-2.8-.5-.9-.2-1.8-.6-2.6-1-.3-.2-.6-.3-.8-.5 0-1.6.2-2.9.4-4.2zm.8-2.8c.1-.3.3-.6.5-.9 1.4-2.2 4.3-3.4 6.8-2.6 1.2.4 2.2 1.3 2.9 2.3.5.8.9 1.7 1.1 2.7-.1-.1-.3-.2-.4-.2-.6-.3-1.2-.5-1.8-.7-1.2-.4-2.5-.6-3.7-.6-1.8-.1-3.6 0-5.4.3-.1-.1 0-.2 0-.3zm-2.9 6.1l.9.6h.1c.5.3 1 .6 1.5.8.9.4 1.8.6 2.7.9l2.7.6 5.5 1.2c1.8.4 3.6.8 5.4 1.4v-.1c-.9-.5-1.8-.9-2.8-1.2h.2c-.1-1.4-.2-2.7-.3-4-.1-.7-.1-1.3-.2-2.1-.1-.7-.2-1.3-.4-1.9v-.1c-.4-1.3-.9-2.7-1.7-3.8s-2-2-3.4-2.4-2.8-.2-4.1.3-2.4 1.5-3.1 2.6c-.3.4-.5 1-.7 1.5-.5.1-1.1.2-1.6.3.5-.1 1-.1 1.5-.2 0 .1-.1.2-.1.3-.2.6-.4 1.3-.6 1.9-.3 1.2-.5 2.3-.6 3.5-1-.6-2-1.3-3-2.2.7.8 1.4 1.5 2.1 2.1zM216.2 28c.4.4.8.9 1.1 1.3.4.4.7.9 1.1 1.4.8.9 1.7 1.6 2.8 2.1s2.3.8 3.4.9c.6 0 1.2 0 1.8-.1s1.2-.2 1.7-.5c1.1-.5 2.1-1.3 2.7-2.3.7-1 1.1-2.1 1.2-3.3s0-2.4-.3-3.5c.2 1.1.3 2.3.1 3.4s-.6 2.2-1.3 3.1-1.6 1.6-2.6 2.1c-1 .4-2.2.6-3.3.5-1.1 0-2.3-.3-3.3-.7-1-.5-2-1.1-2.8-2-.4-.4-.7-.9-1.1-1.3s-.8-.9-1.2-1.3c-.8-.8-1.7-1.6-2.6-2.3 1 .9 1.8 1.6 2.6 2.5zm-24.8 76.4c.4.4.7.9.7 1.3 0 .2 0 .2-.1.3 0 .1-.1.2-.2.3-.2.2-.4.4-.6.5-.5.3-1.1.6-1.7.7-1.3.4-2.6.5-4 .4-1.3-.1-2.7-.4-3.9-.9-.6-.3-1.2-.6-1.7-1s-.8-.9-.8-1.4.4-1 1-1.3c.5-.3 1.2-.6 1.8-.8 1.3-.3 2.7-.4 4-.3 1.4.1 2.7.5 3.9 1.1.6.3 1.2.7 1.6 1.1zm-9.6-2.4c-.7.2-1.4.4-2.1.7-.3.2-.6.4-.9.7-.1.2-.2.3-.3.5s-.2.4-.2.6c0 .4.1.9.3 1.2.2.4.5.6.8.9.6.5 1.2.8 1.9 1.1 1.3.5 2.7.8 4.2 1 1.4.1 2.9.1 4.3-.2.7-.2 1.4-.4 2.1-.8.3-.2.7-.5.9-.8.1-.2.3-.4.4-.6s.2-.5.2-.7c0-.5-.1-1-.3-1.3-.2-.4-.5-.7-.8-.9-.6-.5-1.3-.8-2-1-1.4-.5-2.8-.7-4.2-.8-1.5 0-2.9.1-4.3.4zm20.8.1c.6-.3 1.2-.5 1.9-.7 1.3-.3 2.7-.3 4.1-.1 1.3.2 2.7.5 3.9 1.1.6.3 1.2.6 1.6 1 .5.4.8.9.7 1.3 0 .2 0 .2-.1.3 0 .1-.1.2-.2.3-.2.2-.4.4-.7.6-.5.3-1.1.6-1.8.7-1.3.3-2.6.5-4 .4s-2.7-.3-4-.8c-.6-.3-1.2-.6-1.8-1-.5-.4-.9-1-.9-1.7.2-.6.8-1.1 1.3-1.4zm-.4 3.4c.5.5 1.2.8 1.8 1.1 1.3.6 2.7.9 4.1 1.1s2.8.2 4.3-.1c.7-.2 1.4-.4 2.1-.8.3-.2.7-.4.9-.8.1-.2.3-.4.4-.6s.2-.5.2-.6c0-.5-.1-.9-.3-1.3s-.5-.7-.8-.9c-.6-.5-1.3-.8-1.9-1.1-1.4-.5-2.8-.8-4.2-.8-1.4-.1-2.8 0-4.2.4-.7.2-1.4.4-2 .8-.3.2-.6.4-.8.7s-.4.6-.4 1 .1.8.3 1.1c0 .3.2.5.5.8zm-42.5-8.3c.5-.4 1.2-.7 1.9-1 1.4-.5 2.9-.8 4.4-.9 1.5 0 3.1.2 4.5.7.7.3 1.4.6 2 1.1.6.4 1.1 1.1 1.1 1.8s-.6 1.3-1.2 1.7-1.3.7-2.1.9c-1.5.4-3 .5-4.5.4s-3-.4-4.3-1c-.7-.3-1.3-.6-1.8-1s-.8-.9-.8-1.3c-.1-.5.3-1 .8-1.4zm-1 3.8c.7.5 1.5.9 2.3 1.1 1.6.5 3.2.6 4.8.6s3.2-.2 4.7-.7c.8-.3 1.5-.6 2.2-1.1.3-.2.6-.5.9-.9.2-.3.4-.8.4-1.2s-.1-.9-.4-1.2c-.2-.3-.5-.6-.8-.9-.6-.5-1.4-.8-2.1-1.1-1.5-.5-3-.8-4.6-.9s-3.2-.1-4.8.3c-.8.2-1.6.4-2.4.9-.4.2-.7.5-1 .9s-.5.9-.6 1.5c0 .6.2 1.1.5 1.5.2.6.6.9.9 1.2zm20.5-6.2c.4-.2.8-.3 1.2-.4.8-.2 1.7-.2 2.6-.1s1.8.3 2.6.6c.4.2.8.4 1.1.7s.6.7.5 1.1-.4.7-.8.9-.8.3-1.3.4c-.9.1-1.8.1-2.7 0s-1.7-.4-2.5-.8c-.4-.2-.7-.4-1-.7s-.5-.6-.4-.9.4-.6.7-.8zm-.6 2.2c.4.3.8.6 1.2.8.9.4 1.8.6 2.7.7s1.9.1 2.8-.1c.5-.1.9-.2 1.3-.5.4-.2.8-.6.9-1.1s-.2-1-.6-1.3c-.3-.3-.7-.6-1.2-.8-.8-.4-1.7-.7-2.6-.8s-1.9-.2-2.8 0c-.5.1-.9.2-1.4.5-.2.1-.4.3-.6.5-.1.1-.2.2-.2.4-.1.1-.1.3-.1.4 0 .3 0 .6.2.8 0 .1.2.3.4.5zm14.4.2c.3-.2.6-.3.9-.4.7-.2 1.4-.3 2.1-.3s1.5.1 2.2.3c.3.1.7.3 1 .5s.5.5.5.8-.3.6-.6.8-.7.3-1 .4c-.7.2-1.5.2-2.2.1s-1.5-.3-2.1-.5c-.3-.1-.6-.3-.9-.5-.2-.2-.4-.4-.4-.6.1-.2.3-.4.5-.6zm-.6 1.9c.4.3.8.5 1.1.6.8.3 1.6.3 2.4.3s1.6-.1 2.3-.4c.4-.1.7-.3 1.1-.5.3-.2.7-.6.7-1 0-.5-.3-.8-.6-1.1s-.7-.5-1-.6c-.7-.3-1.5-.5-2.3-.6s-1.6-.1-2.4.1c-.4.1-.8.2-1.2.5-.2.1-.4.3-.5.5-.1.1-.2.2-.2.4-.1.1-.1.3-.1.4 0 .3.1.6.2.8.1.3.3.4.5.6z"/></g><path d="M99.8 43.1c.4-1.9 5.6-2.9 10-.9-1.8-2.6-11-3.8-11.6-1-.1.7.2 2.1 1.8 3.2-.2-.5-.2-.9-.2-1.3zM224 55.9c-1.4-1.2-6.2-1.6-10.7.3 1.9-2.3 8.7-3.8 11.9-1.2.9.7 1.1 2.1-.2 2.8.2-.4-.2-1.2-1-1.9z" fill="#fff"/><path d="M204 121.8c-.6 0-1.4-.1-1.9-.7-.1-.2-.2-.4-.3-.7 0-.3.1-.6.4-.9.4-.4 1.4-.6 2.5-.7h.3c1.4 0 2.7.4 2.8 1.2 0 .4 0 1-1 1.4-.5.2-1.1.3-1.9.4zm-6.5 1.1c-.9 0-3.8 0-3.8-1.9 0-1 1.8-1.7 3.7-1.7 1.5 0 2.7.2 3.3.8.3.3.4.6.4.9s-.1.6-.3.9c-.5.9-1.8 1-3.3 1zm28.4-12.6c.1.4.1.9-.1 1.4s-.4.9-.8 1.2c-.6.7-1.5 1.2-2.3 1.7-1.7.8-3.5 1.3-5.3 1.7-3.6.8-7.2 1.2-10.8 1.4s-7.3.2-10.9.1-7.2-.3-10.9-.7c-7.2-.7-14.4-1.9-21.4-3.7-1.8-.5-3.5-1-5.2-1.5-1.7-.6-3.4-1.2-5.1-1.9s-3.3-1.6-4.8-2.6c-.7-.5-1.5-1.1-2-1.8-.6-.7-1.1-1.6-1-2.5.1.9.6 1.7 1.2 2.3s1.3 1.2 2.1 1.7c1.5.9 3.1 1.7 4.8 2.4 3.3 1.3 6.8 2.4 10.3 3.2 7 1.7 14.2 2.7 21.3 3.3 7.2.6 14.4.8 21.6.5 3.6-.2 7.2-.6 10.7-1.3 1.7-.4 3.5-.9 5.1-1.6.8-.3 1.6-.7 2.2-1.3.6-.4 1.2-1.1 1.3-2z" fill="#ed9c1c"/><path d="M159.6 113.6c-.3 1.8-.5 3.7-.6 5.5s0 3.7.2 5.5l-1.2.1c0-1.9.1-3.8.4-5.6.3-1.9.7-3.8 1.2-5.5zm132 78.6l4.5-40.5 50 4.5-18.4 17.8c-.2.2-.3.5-.1.8l16.6 22z" fill="#54301c"/><path d="M293 191.1l48.6 4.2-14.9-19.8c-.6-.7-.4-1.8.2-2.4l16.6-16-46.2-4.2zm51.1 6.8h-.1l-52.5-4.5c-.3 0-.6-.2-.8-.4s-.3-.6-.3-.9l4.5-40.5c.1-.6.6-1.1 1.3-1.1l50 4.5c.5 0 .9.4 1 .8 0 .1.1.3.1.4 0 .3-.1.6-.4.9l-18.1 17.4 16.1 21.4c.2.2.3.5.3.8.1.7-.4 1.2-1.1 1.2z" fill="#fff"/><path d="M292.2 180.6l-1 11.7c15.3 1.8 21.3-2.7 21.3-2.7.5-3.2-9.9-6.9-20.3-9z" fill="#fff"/><path d="M57.5 191.4L53 150.9l-51.8 4.5 20.2 17.8c.2.2.3.5.1.8L5 196z" fill="#54301c"/><path d="M4.1 156.4l18.1 16c.7.6.8 1.6.2 2.4L7.5 194.6l48.6-4.2-4.2-38.2zm.9 40.8c-.4 0-.8-.2-1-.6s-.2-.9.1-1.3l16.2-21.5L.4 156.4c-.3-.2-.4-.5-.4-.9 0-.1 0-.2.1-.4.1-.5.6-.8 1-.8l51.8-4.5c.6-.1 1.2.4 1.3 1.1l4.5 40.5c0 .3-.1.6-.3.9-.2.2-.5.4-.8.4l-52.5 4.5z" fill="#fff"/><path d="M56.9 179.9l1 11.7c-15.3 1.8-21.3-2.7-21.3-2.7-.5-3.2 10-6.9 20.3-9z" fill="#fff"/><path d="M304.9 136.2c-15.6-5.3-77.2-11.2-132.7-10.8-66.8-.4-113.9 4.5-129.5 9.8-12.4 4.2-12.4 9.8-12.4 9.8l6.5 43c8.6-14.5 120.5-15.4 134.5-15.3h1.8c13.9-.1 118.5-1.5 139.4 16.2l4.7-43c.1.1.1-5.5-12.3-9.7z" fill="#54301c"/><path d="M186.4 171.5c38.9 0 105.7 2 125.2 15.3l4.5-40.8c-.1-.4-.9-5-11.5-8.6-14.9-5.1-72.1-10.7-126.5-10.7h-13.9c-63.7 0-106.7 4.9-121 9.8-10.5 3.6-11.4 8-11.5 8.6l6.1 40.4c3.3-2.6 9.9-4.9 20.1-6.8 10-1.9 23.6-3.4 40.2-4.6 33.5-2.4 67.2-2.5 71-2.5h5.4c2.3-.1 6.5-.1 11.9-.1zm126.2 18.6c-.3 0-.6-.1-.8-.3-17-14.4-93.4-16-125.4-16-5.3 0-9.5 0-12 .1H169c-49.1 0-124.6 3.9-131 14.7-.3.4-.8.7-1.3.6s-.9-.5-1-1l-6.5-43v-.2c0-.7.4-6.6 13.2-10.9 14.5-4.9 57.8-9.9 121.8-9.9h13.9c54.5 0 112.2 5.7 127.2 10.9 12.8 4.4 13.2 10.3 13.2 10.9v.1l-4.7 43c0 .4-.3.8-.7 1z" fill="#fff"/><path d="M57 166.3l-.7-5.3c1-.1 1.9-.2 2.9-.4-.5-4.3-1-8.5-1.6-12.8-1 .1-1.9.2-2.9.4-.2-1.8-.4-3.5-.7-5.3 8.1-1 16.2-1.9 24.3-2.8.3 3.2.6 6.4 1 9.6-2 .2-4 .4-5.9.6 0-.4-.1-.9-.1-1.3v.1c-.4-2.4-2-2.7-2.7-2.8-1.4.1-2.7.3-4.1.5.2 1.6.4 3.3.6 4.9.2 0 .3 0 .5-.1.5-.1 1.5-.5 1.5-2.1 0-.2-.1-.5-.1-.7.9-.1 1.9-.2 2.8-.3.3 2.7.6 5.5.9 8.2-.9.1-1.8.2-2.8.3l-.2-2.1c-.7.1-1.4.2-2.2.2.2 1.5.3 3 .5 4.4 1.6-.2 3.3-.4 4.9-.5.2 1.8.4 3.5.6 5.3-5.6.7-11.1 1.3-16.5 2zM88.6 151c-1.3.1-2.1 1.7-2 3.5.2 1.8 1.3 3.2 2.6 3.1 1.2-.1 2.1-1.7 2-3.5s-1.3-3.2-2.6-3.1zm1.2 12.6c-5.2.5-9.9-3.2-10.4-8.3s3.4-9.7 8.7-10.2 10 3.3 10.4 8.4-3.5 9.6-8.7 10.1zm19.3-14.2c-1.3.1-2.2 1.6-2 3.5.1 1.8 1.3 3.2 2.5 3.1s2.2-1.6 2-3.5c-.1-1.8-1.3-3.2-2.5-3.1zm.9 12.6c-5.2.4-9.8-3.5-10.2-8.6s3.6-9.6 8.9-10 9.9 3.5 10.2 8.7c.3 5.1-3.7 9.5-8.9 9.9zm20.4-13.9c-1.1.1-1.8 1.5-1.7 3.4s1 3.3 2.1 3.2c1.1 0 1.8-1.5 1.7-3.4-.1-1.8-1-3.2-2.1-3.2zm-2.3 12.7c-1.3.1-3.3-.1-4.9-1.6s-2.5-3.9-2.7-7.2c-.3-5.2 3.1-9.1 8-9.4h.3c1.5-.1 2.9.2 3.9.8.1 0 .2.1.2.1-.1-1.2-.1-2.4-.2-3.7-1.2.1-2.4.1-3.5.2-.1-1.7-.2-3.5-.2-5.2 3.6-.2 7.3-.3 11-.5.2 6.6.5 13.2.7 19.8.6 0 1.3 0 1.9-.1.1 1.8.1 3.6.2 5.4-1.2 0-2.4.1-3.5.1h-.1c-.6 0-1.2 0-1.7.1v.1c-1.1.1-2.2.1-3.3.2 1-1.9.8-5.5.8-5.7v-.1h-.3s0 .1-.1.1c-.1.6-1.2 6.2-6.3 6.6zm99.6-12.3c-1.1-.1-2 1.4-2.1 3.2-.1 1.9.7 3.4 1.7 3.4 1.1.1 2-1.3 2.1-3.2.1-1.8-.6-3.3-1.7-3.4zm-3.6 12.3c-1.3-.1-3.2-.5-4.7-2.1s-2.1-4.1-2-7.4c.3-5.2 4-8.7 9-8.6h.3c1.5.1 2.8.5 3.8 1.2.1.1.2.1.2.2.1-1.2.1-2.4.2-3.6-1.2-.1-2.4-.1-3.5-.2.1-1.7.2-3.5.3-5.2 3.6.2 7.3.4 10.9.6-.4 6.6-.9 13.2-1.3 19.8.6 0 1.3.1 1.9.1-.1 1.8-.2 3.6-.4 5.4-1.2-.1-2.4-.2-3.5-.2h-.1c-.6 0-1.2-.1-1.7-.1v.1c-1.1 0-2.2-.1-3.3-.1 1.2-1.8 1.4-5.4 1.4-5.6v-.1h-.3s0 .1-.1.1c-.2.6-1.8 6-6.9 5.9 0-.2-.1-.2-.2-.2zm-68.8-17.9v2.4h2c1.1 0 2-.9 2-2.1 0-1.1-1-2-2.1-2h-2c0 .6.1 1.1.1 1.7zm.1 7.6v.5c0 .2 0 .3.1.5v2h2.5c1.4 0 2.5-1.2 2.5-2.5 0-1.4-1.2-2.5-2.6-2.4h-2.5zm7.5 8.5c-6.3.1-12.5.2-18.8.5-.1-1.8-.1-3.6-.2-5.5.9 0 1.8-.1 2.7-.1-.1-4.3-.3-8.6-.4-12.9-.9 0-1.9.1-2.8.1-.1-1.8-.1-3.6-.2-5.3.9 0 1.9-.1 2.8-.1 3.1-.1 6.2-.2 9.2-.2h.2c2.3 0 4.5-.1 6.8-.1 3 0 5.5 2.4 5.5 5.4 0 3.1-2.5 5.8-5.4 5.8 0 0-.2 0-.3.1 0 .1-.1.1-.1.2s.1.2.2.2h.8c3.2 0 5.8 2.8 5.9 6.1 0 3.2-2.6 5.9-5.8 5.9 0-.1-.1-.1-.1-.1zm17.4-8.4c-.5 0-1.4.1-2 .7-.3.3-.5.8-.5 1.3 0 .7.6 1.3 1.3 1.3s1.2-.3 1.5-1c.2-.5.2-1.9.1-2.1v-.1h-.1c0-.1-.1-.1-.3-.1zm-4.6 9.1h-.4c-2.8-.1-4.9-2.3-5-4.9 0-2.9 2.5-4.6 4.9-5 1.3-.2 2.5-.3 5.2-.4h.1v-.1c.1-1.2-.1-2.2-.7-2.8-.7-.8-1.7-.8-2-.8h-.3v.3c0 1.7-1.4 3-3.1 3s-3.1-1.3-3.1-3c0-.5.1-1.1.4-1.5 1.3-3 5.5-3 8.9-3h.3c8 .1 8 6.9 8 6.9 0 1.6 0 3.3-.1 4.9 0 0 0 .3.1.4s.2.1.3.1c.3 0 .5-.3.5-.4 0-.7.1-1.4.1-2.1h2.8v2.6s.2 2.4-1.2 4c-.8 1-2 1.5-3.6 1.5h-.3c-4.2 0-4.5-4.9-4.4-6.4v-.1c0-.2 0-.3-.1-.4s-.2-.1-.3-.1h-.2l-.2.2v.1c-.2 3.3-1.5 7-6.6 7zm36 .4c-1.9-.1-5.2-.7-5.1-4.3.1-3.4.1-4.2.1-4.4 0-.7 0-1.4.1-2 0-.8-.6-1.5-1.4-1.5-.7 0-1.3.4-1.5 1.1v1.7l-.1 3.3h1.2l-.2 5.5-10.9-.3c0-1.8.1-3.6.1-5.5h1.3c0-2 .1-4 .1-6.1h-1.8c0-1.8.1-3.6.1-5.3 3.2.1 6.3.1 9.5.2-.1.1-.3.4-.5.7s-.4.7-.6 1.1c-.4 1-.7 2-.8 3.2v1c.1.3.3.5.5.5.6 0 .7-.7.7-.9 0 0 .9-5.2 5.8-5.9h.2c.3 0 .7-.1 1-.1 3 .1 5.4 2.6 5.3 5.6 0 .2 0 .4-.1.6-.1 2-.2 4.1-.2 6.1.6 0 1.2.1 1.8.1-.1 1.4-.1 2.9-.2 4.3-.9.9-2.5 1.4-4.4 1.3zm38.2 2c.1-1.8.3-3.6.4-5.4.4 0 .9.1 1.3.1.2-2 .3-4 .5-6-.6 0-1.2-.1-1.8-.1.1-1.8.3-3.5.4-5.3 3.2.2 6.3.5 9.5.8-.1.1-.3.3-.5.6s-.5.7-.7 1.1c-.5.9-.8 2-1 3.2 0 .3-.1.7-.1 1 .1.3.2.5.5.5.6.1.7-.6.8-.9 0 0 1.2-5.2 6.2-5.6h1.1c3 .3 5.1 2.9 5 5.9-.2 2.7-1 3.6-1.2 3.7-2.4-.2-4.8-.5-7.1-.7.1-.6.1-1.3.2-1.9.1-.8-.5-1.5-1.3-1.6-.7-.1-1.3.4-1.5 1 0 .5-.1 1.1-.1 1.6v.1l-.3 3.3c1 .1 2 .2 3.1.3-.2 1.8-.3 3.6-.5 5.4-4.4-.5-8.6-.8-12.9-1.1zm-5.6 0c-2.2-.2-3.9-2-3.7-4 .1-2.1 2.1-3.6 4.3-3.4s3.9 2 3.7 4-2.1 3.6-4.3 3.4zm34.3 3.1c-3-.3-5.1-3-4.8-5.9 0-.2 0-.4.1-.6.2-2 .4-4 .6-6.1-.6-.1-1.2-.1-1.9-.2.2-1.8.4-3.7.6-5.5 3.3.3 6.5.7 9.8 1-.4 3.4-.7 6.8-1.1 10.2-.1.8.5 1.5 1.3 1.6.7.1 1.3-.3 1.6-1 .1-.5.1-1.1.2-1.6v-.1c.1-1.1.3-2.2.4-3.3-.4 0-.8-.1-1.2-.1l.6-5.4c3.7.4 7.4.9 11.1 1.3-.2 1.8-.5 3.6-.7 5.4-.4-.1-.9-.1-1.3-.2-.2 2-.5 4-.7 6 .6.1 1.2.1 1.8.2-.2 1.8-.4 3.5-.7 5.3-3.1-.4-6.2-.8-9.3-1.1.1-.1.3-.3.5-.6s.5-.7.7-1c.5-.9.9-2 1.1-3.1 0-.3.1-.7.1-1-.1-.3-.2-.5-.5-.5-.6-.1-.7.6-.8.9 0 .1-1.3 5.1-6.3 5.4h-.1c-.4.1-.7.1-1.1 0z" fill="#fff"/><path d="M78.5 140c-2.1.2-4.2.4-6.3.7l-18.3 2.1c.2 1.9.5 3.7.7 5.6 1-.1 1.9-.2 2.9-.4.5 4.2 1 8.3 1.5 12.5-1 .1-1.9.2-2.9.4.2 1.9.5 3.7.7 5.6.9-.1 1.9-.2 2.8-.4 3-.4 6-.7 9-1.1 1.6-.2 3.2-.4 4.9-.5-.2-1.9-.4-3.7-.6-5.6-1.6.2-3.3.4-4.9.5-.2-1.4-.3-2.8-.5-4.1.6-.1 1.2-.1 1.9-.2.1.7.2 1.4.2 2.1 1-.1 2-.2 3.1-.3-.3-2.8-.6-5.7-.9-8.5-1 .1-2.1.2-3.1.3 0 .3.1.6.1.8 0 1.4-.9 1.8-1.3 1.9h-.3c-.2-1.5-.3-3.1-.5-4.6 1.3-.1 2.6-.3 3.9-.4.7 0 2.3.4 2.6 3 0 .4.1.7.1 1.1 2.1-.2 4.2-.4 6.2-.6-.1-1.4-.3-2.9-.4-4.3-.2-1.8-.4-3.7-.6-5.6zm-.3.4c.2 1.8.4 3.5.5 5.3.1 1.3.3 2.7.4 4-1.9.2-3.8.4-5.6.6 0-.3-.1-.5-.1-.8s-.1-.5-.1-.8c0 0 0 .1-.1.1-.5-2.2-2.1-2.5-2.8-2.5-1.3.1-2.6.3-3.9.4h-.3v.3c.2 1.5.3 3.1.5 4.6v.3h.6c.5-.1 1.6-.5 1.6-2.3 0-.2 0-.4-.1-.5.8-.1 1.7-.2 2.5-.3.3 2.6.6 5.3.9 7.9-.8.1-1.6.2-2.5.3-.1-.6-.1-1.2-.2-1.8v-.3h-.3c-.6.1-1.2.1-1.8.2h-.3v.3c.2 1.4.3 2.8.5 4.1v.3h.3c1.5-.2 3.1-.3 4.6-.5.2 1.7.4 3.3.5 5-1.5.2-3 .3-4.6.5-3 .3-6 .7-9 1.1-.8.1-1.7.2-2.5.3-.2-1.7-.4-3.3-.6-5 .9-.1 1.7-.2 2.6-.3h.3v-.3c-.5-4.2-1-8.3-1.5-12.5v-.3h-.3c-.9.1-1.7.2-2.6.3-.2-1.7-.4-3.3-.6-5 6-.8 12-1.5 18-2.1zm11 17.1c-1.2.1-2.2-1.2-2.4-3-.2-1.7.7-3.2 1.8-3.3 1.2-.1 2.3 1.2 2.4 3 .2 1.7-.6 3.2-1.8 3.3zm-1.1-12.6c-5.4.5-9.4 5.1-8.8 10.3.5 5.2 5.3 9 10.5 8.5 5.3-.5 9.2-5 8.8-10.2s-5.1-9.1-10.5-8.6zm1.2 12.9c1.3-.1 2.3-1.8 2.1-3.7s-1.4-3.4-2.7-3.2c-1.3.1-2.3 1.8-2.1 3.7.1 1.9 1.3 3.3 2.7 3.2zm-1.2-12.6c5.2-.5 9.8 3.3 10.2 8.3s-3.4 9.4-8.6 9.9c-5.1.5-9.7-3.2-10.2-8.2s3.4-9.5 8.6-10zm21.4 10.6c-1.2.1-2.2-1.3-2.3-3s.7-3.2 1.9-3.3 2.2 1.3 2.3 3c.2 1.8-.7 3.3-1.9 3.3zm-.8-12.5c-5.4.4-9.5 4.9-9 10.1.4 5.2 5.1 9.1 10.4 8.7s9.3-4.8 9.1-10c-.5-5.2-5.1-9.2-10.5-8.8zm.9 12.8c1.3-.1 2.3-1.7 2.2-3.6s-1.3-3.4-2.7-3.3c-1.3.1-2.3 1.7-2.2 3.6.1 2 1.3 3.4 2.7 3.3zm-.9-12.5c5.2-.4 9.7 3.5 10 8.5s-3.6 9.4-8.8 9.7c-5.1.4-9.6-3.4-10-8.4s3.5-9.5 8.8-9.8zm22.1 11c-1 0-1.8-1.3-1.9-3.1-.1-1.7.6-3.2 1.6-3.2s1.8 1.3 1.9 3.1c0 1.7-.7 3.2-1.6 3.2zm9.4-20.4c-2.1.1-4.1.2-6.2.2-1.7.1-3.4.2-5.1.2.1 1.8.2 3.7.3 5.5 1.2-.1 2.4-.1 3.5-.2 0 1.1.1 2.1.1 3.2-1.2-.7-2.7-.9-4-.8h-.3c-5.1.4-8.4 4.4-8.2 9.6.4 7.7 4.7 9.1 7.7 8.9h.3c5.1-.4 6.3-5.9 6.4-6.7s.2 4-.9 5.8c1.3-.1 2.5-.1 3.8-.2v-.1c.5 0 1 0 1.5-.1 1.3 0 2.6-.1 3.8-.1l-.2-5.7c-.6 0-1.3 0-1.9.1-.2-4.8-.3-9.5-.5-14.3 0-1.6-.1-3.5-.1-5.3zm-9.4 20.7c1.1-.1 2-1.6 1.9-3.6-.1-1.9-1.1-3.4-2.2-3.4-1.2.1-2 1.6-1.9 3.6 0 2 1 3.5 2.2 3.4zm9.1-20.4c.1 1.7.1 3.5.2 5.2.2 4.8.3 9.5.5 14.3v.3h.3c.5 0 1.1 0 1.6-.1.1 1.7.1 3.4.2 5.1-1.1 0-2.2.1-3.2.1h-.3c-.5 0-1 0-1.5.1h-.5v.1c-.9.1-1.9.1-2.8.2.9-2 .7-5.4.7-5.5v-.3h-.5v.2c-.1.6-1.2 6.1-6.1 6.5h-.3c-1.3.1-3.2-.1-4.7-1.5-1.6-1.4-2.5-3.8-2.6-7.1-.2-5.1 3-8.9 7.9-9.3h.3c1.5-.1 2.8.2 3.8.8.2.1.3.2.5.3v-.6c0-1.1-.1-2.2-.1-3.2v-.3h-.3c-1.1 0-2.1.1-3.2.1-.1-1.6-.2-3.3-.2-4.9 1.6-.1 3.2-.1 4.8-.2 1.6-.2 3.5-.2 5.5-.3zm87.5 20.5c-1-.1-1.7-1.5-1.6-3.2s.9-3.1 1.9-3.1c1 .1 1.7 1.5 1.6 3.3-.1 1.6-1 3-1.9 3zm11.4-19.4c-2.1-.1-4.1-.3-6.2-.4l-5.1-.3c-.1 1.8-.2 3.7-.3 5.5 1.2.1 2.4.1 3.5.2-.1 1.1-.1 2.1-.2 3.2-1.2-.8-2.6-1.2-3.9-1.2h-.3c-5.1-.1-8.8 3.5-9.1 8.7-.4 7.7 3.7 9.5 6.8 9.7h.3c5.2.1 6.8-5.3 7.1-6s-.2 4-1.5 5.7c1.3.1 2.5.1 3.8.2v-.1c.5 0 1 .1 1.5.1 1.3.1 2.6.2 3.8.2.1-1.9.3-3.8.4-5.6-.6 0-1.3-.1-1.9-.1.3-4.8.6-9.5.9-14.3.2-1.8.3-3.7.4-5.5zm-11.4 19.7c1.1.1 2.1-1.4 2.2-3.3s-.7-3.5-1.9-3.6-2.1 1.4-2.2 3.3.7 3.5 1.9 3.6zm11.1-19.4c-.1 1.7-.2 3.5-.3 5.2-.3 4.8-.6 9.5-.9 14.3v.3h.3c.5 0 1.1.1 1.6.1l-.3 5.1c-1.1-.1-2.2-.1-3.2-.2h-.3c-.5 0-1-.1-1.5-.1h-.5v.1c-.9 0-1.9-.1-2.8-.1 1.1-1.9 1.3-5.3 1.3-5.4v-.3h-.5c0 .1 0 .2-.1.2-.2.6-1.8 5.9-6.8 5.8h-.3c-1.3-.1-3.2-.5-4.6-2-1.4-1.6-2.1-4.1-1.9-7.3.3-5.1 3.9-8.6 8.8-8.4h.3c1.5.1 2.8.5 3.7 1.2.2.1.3.2.5.3v-.6c.1-1.1.1-2.1.2-3.2v-.3h-.3c-1.1-.1-2.1-.1-3.2-.2.1-1.6.2-3.3.3-4.9l4.8.3c1.8-.2 3.7-.1 5.7.1zm-82.8 17.4v-1.9c0-.2-.1-.3-.1-.5v-2.4h2.3c1.3 0 2.4 1 2.4 2.3s-1 2.4-2.3 2.4c-.8.1-1.6.1-2.3.1zm-.2-8.2v-3.8h1.9c1.1 0 1.9.8 2 1.8 0 1-.8 1.9-1.9 1.9-.8.1-1.4.1-2 .1zm-.1-9.8c-3.2.1-6.4.1-9.6.2-.9 0-1.9.1-2.8.1.1 1.9.1 3.8.2 5.6.9 0 1.9-.1 2.8-.1.1 4.2.3 8.4.4 12.6-.9 0-1.8.1-2.7.1.1 1.9.1 3.8.2 5.8 6.4-.2 12.7-.4 19.1-.4h.1c3.3 0 6-2.8 6-6.1s-2.7-6.2-6-6.2h-.8s-.1 0-.1-.1.2-.1.2-.1c3.1 0 5.5-2.9 5.5-5.9 0-3.1-2.6-5.5-5.7-5.5-.1-.1-6.8 0-6.8 0zm-.1 15.2v.5c0 .2 0 .3.1.5v2.1h2.6c1.5 0 2.6-1.2 2.6-2.7s-1.2-2.6-2.7-2.6h-2.6v.3zm-.2-7.7v2.6h2.2c1.2 0 2.2-1 2.2-2.2s-1-2.2-2.3-2.1H155v.3c.1.5.1 1 .1 1.4zm0-7.2h.3c2.3 0 4.5-.1 6.8-.1 2.9 0 5.3 2.3 5.4 5.2 0 3-2.4 5.6-5.2 5.6-.1 0-.3 0-.4.2-.1.1-.1.2-.1.3 0 .2.2.3.4.3h.8c3.1 0 5.7 2.7 5.7 5.9 0 3.1-2.5 5.7-5.7 5.8h-.4c-6.2.1-12.4.2-18.5.4-.1-1.7-.1-3.4-.2-5.2.8 0 1.6-.1 2.4-.1h.3v-.3c-.1-4.2-.3-8.4-.4-12.6v-.3h-.3c-.8 0-1.6.1-2.5.1-.1-1.7-.1-3.4-.2-5 .8 0 1.7-.1 2.5-.1h.3c3 0 6 0 9-.1zm24 18.1c-.6 0-1.1-.5-1.1-1.1 0-1.7 1.7-1.8 2.4-1.8h.2s.1 1.6-.1 2c-.3.5-.8.9-1.4.9zm2-12.4c-3.5 0-8 0-9.3 3.1-.3.5-.4 1-.4 1.6 0 1.8 1.5 3.2 3.2 3.2 1.8 0 3.2-1.4 3.2-3.2v-.2h.2c.7 0 2.8.4 2.6 3.5-2.7.1-3.9.2-5.3.4-2.8.4-5.1 2.3-5 5.1 0 2.8 2.3 5 5.1 5.1h.4c5.5 0 6.6-4.3 6.8-7.1l.1-.1h.4c.1.1.1.1.1.5 0 1.6.3 6.5 4.6 6.6h.4c5.5-.3 5-5.7 5-5.7v-2.7c-1 0-2.1 0-3.1-.1 0 .7-.1 1.5-.1 2.2 0 0-.1.3-.3.3-.3 0-.3-.4-.3-.4 0-1.6 0-3.3.1-4.9-.3-.1-.2-7.1-8.4-7.2zm-2 12.7c.7 0 1.3-.4 1.6-1.1.2-.5.2-1.9.2-2.2v-.3h-.6c-.5 0-1.5.1-2.1.7-.4.4-.5.8-.5 1.4 0 .8.6 1.5 1.4 1.5zm2-12.4c7.8.1 7.8 6.5 7.8 6.8 0 1.6 0 3.3-.1 4.9 0 .1 0 .3.2.5.1.1.2.2.4.2.4 0 .6-.3.6-.5 0-.6.1-1.3.1-1.9h2.5v2.4s.2 2.3-1.1 3.9c-.8.9-2 1.4-3.5 1.5h-.3c-3.9 0-4.3-4.4-4.3-6.3v-.1c0-.2 0-.4-.2-.5-.1-.1-.2-.1-.4-.1h-.3l-.1.1-.1.1-.1.1v.1c-.2 3.1-1.5 6.8-6.4 6.8h-.4c-2.7-.1-4.8-2.2-4.8-4.8 0-2.8 2.4-4.5 4.8-4.8 1.3-.2 2.5-.3 5.2-.4h.3v-.3c.1-1.3-.1-2.3-.8-2.9-.7-.8-1.8-.9-2.1-.9h-.5v.4c0 1.6-1.3 2.9-2.9 2.9s-2.9-1.3-2.9-2.9c0-.5.1-1 .4-1.4 1.3-2.9 5.4-2.9 8.8-2.9h.2c-.1 0 0 0 0 0zm28.4.3c-.4 0-.7 0-1.1.1h-.1c-4.9.7-5.9 5.6-6 6.1 0 .5-.2.8-.5.8-.2 0-.3-.2-.4-.3v-1c.1-1.3.4-2.4.8-3.2.2-.4.4-.8.6-1.1.4-.6.7-.9.7-.9h-.1c-.8 0-1.5 0-2.3-.1h-1.4c-1.5 0-2.9-.1-4.4-.1h-1.8c0 1.9-.1 3.8-.1 5.6h1.8c0 1.9-.1 3.8-.1 5.8h-1.3c0 1.9-.1 3.8-.1 5.8h1.3c2.1 0 4.1.1 6.2.1 1.2 0 2.5.1 3.7.1.1-1.9.1-3.8.2-5.8h-1.2c0-1 .1-2.1.1-3.1 0-.6 0-1.2.1-1.7.1-.6.7-1 1.3-1 .7 0 1.3.6 1.3 1.4 0 .7 0 1.4-.1 2l-.1 4.4c-.1 3.1 2.2 4.3 5.2 4.5 1.9.1 3.6-.4 4.6-1.5.1-1.5.1-3 .2-4.5-.6 0-1.2-.1-1.8-.1.1-2 .2-3.9.2-5.9 0-.2 0-.4.1-.6.1-3.1-2.4-5.7-5.5-5.8zm0 .3c3 .1 5.3 2.6 5.1 5.5 0 .2 0 .4-.1.6-.1 2-.2 3.9-.2 5.9v.3h.3c.5 0 1 0 1.5.1-.1 1.4-.1 2.7-.2 4.1-.9.9-2.4 1.4-4.3 1.3s-5-.7-4.9-4.1c.1-3 .1-4 .1-4.4 0-.7 0-1.4.1-2.1 0-.9-.7-1.6-1.6-1.7-.8 0-1.4.5-1.6 1.2v1.7c0 1-.1 2.1-.1 3.1v.3h1.2c-.1 1.7-.1 3.4-.2 5.2-1.1 0-2.3-.1-3.4-.1-2.1-.1-4.1-.1-6.2-.1h-1c0-1.7.1-3.4.1-5.2h1.3v-.3c0-1.9.1-3.8.1-5.8v-.3h-1.8c0-1.7.1-3.4.1-5h1.5c1.5 0 2.9.1 4.4.1h3.1c-.1.1-.2.3-.3.4-.2.3-.4.7-.6 1.1-.4 1-.7 2.1-.8 3.3v1.1c.1.3.3.5.7.5.7 0 .8-.8.8-1.1 0 0 .8-5.1 5.7-5.8h.1c.5.2.8.2 1.1.2zm57.1 3.5h-1.2c-5 .4-6.3 5.3-6.3 5.7-.1.5-.2.8-.6.8-.2 0-.3-.2-.4-.3 0-.3.1-.7.1-1 .2-1.3.6-2.3 1-3.1.2-.4.4-.8.6-1 .4-.6.7-.8.7-.8h-.1l-3.6-.3c-2.1-.2-4.1-.3-6.2-.5-.1 1.9-.3 3.7-.4 5.6.6 0 1.2.1 1.8.1-.2 1.9-.3 3.8-.5 5.7-.4 0-.9-.1-1.3-.1-.2 1.9-.3 3.8-.5 5.7 4.4.3 8.7.7 13.1 1.1.2-1.9.4-3.8.5-5.7-1-.1-2-.2-3.1-.3.1-1 .2-2.1.3-3.1.1-.6.1-1.1.2-1.7.2-.6.7-1 1.4-.9s1.3.7 1.2 1.4-.1 1.4-.2 2c2.5.2 4.9.5 7.3.7 0 0 1.1-.7 1.3-3.9.2-3-1.9-5.8-5.1-6.1zm0 .3c2.9.3 5 2.8 4.8 5.8-.2 2.5-.9 3.4-1.1 3.6-2.3-.2-4.6-.4-6.9-.7.1-.6.1-1.2.2-1.7.1-.9-.6-1.7-1.5-1.8-.8-.1-1.5.4-1.7 1.1 0 .5-.1.9-.1 1.4v.3c-.1 1-.2 2.1-.3 3.1v.3h.3c.9.1 1.8.2 2.8.3-.2 1.7-.3 3.4-.5 5.1-4.2-.4-8.3-.7-12.5-1.1.1-1.7.3-3.4.4-5.1.3 0 .7.1 1 .1h.3v-.3c.2-1.9.3-3.8.5-5.7v-.3h-.3c-.5 0-1-.1-1.5-.1.1-1.7.3-3.3.4-5 2 .2 3.9.3 5.9.5 1 .1 2.1.2 3.1.3-.1.1-.2.3-.3.4-.2.3-.5.7-.7 1.1-.5.9-.8 2-1 3.2 0 .3-.1.7-.1 1v.2c.1.3.3.5.7.6.7.1.9-.8.9-1 0 0 1.1-5 6.1-5.4h.1c.4-.2.7-.2 1-.2zm-21.7 8.5c-2.3-.2-4.3 1.4-4.4 3.6-.1 2.1 1.6 4 3.9 4.2s4.3-1.4 4.4-3.6-1.6-4-3.9-4.2zm0 .3c2.1.2 3.7 1.9 3.6 3.9-.2 2-2 3.4-4.1 3.3-2.1-.2-3.7-1.9-3.6-3.9s1.9-3.5 4.1-3.3zm38.3-7c-3.4-.4-6.7-.7-10.1-1.1 0 .4-.1.9-.1 1.3-.2 1.5-.3 3-.5 4.5.6.1 1.2.1 1.9.2-.2 2-.4 3.9-.6 5.9 0 .2-.1.4-.1.6-.3 3 1.9 5.8 5 6.1h1.1c4.9-.3 6.3-5.1 6.4-5.6.1-.4.2-.8.6-.8.2 0 .3.2.4.3 0 .3-.1.7-.1 1-.2 1.3-.6 2.3-1.1 3.1-.2.4-.5.7-.7 1-.4.6-.8.8-.8.8h.1c1.2.1 2.4.3 3.6.4 2 .2 4.1.5 6.1.7.2-1.9.5-3.7.7-5.6-.6-.1-1.2-.1-1.8-.2.2-1.9.5-3.8.7-5.7.4.1.9.1 1.3.2.2-1.9.5-3.8.7-5.7-3.8-.5-7.6-.9-11.4-1.4-.2 1.9-.4 3.8-.7 5.7.4 0 .8.1 1.2.1-.1 1-.2 2.1-.4 3.1-.1.6-.1 1.1-.2 1.7-.2.6-.8 1-1.4.9-.7-.1-1.3-.7-1.2-1.5.6-3.1 1-6.5 1.4-10zm-.4.3c-.4 3.4-.7 6.7-1.1 10.1-.1.9.5 1.7 1.4 1.8.8.1 1.5-.4 1.7-1.1.1-.5.1-.9.2-1.4v-.3c.1-1 .2-2.1.4-3.1v-.3h-.3c-.3 0-.6-.1-.9-.1l.6-5.1c3.6.4 7.2.8 10.8 1.3l-.6 5.1c-.3 0-.7-.1-1-.1h-.3v.3c-.2 1.9-.5 3.8-.7 5.7v.3h.3c.5.1 1 .1 1.5.2-.2 1.7-.4 3.3-.6 5-1.9-.2-3.9-.5-5.8-.7-1-.1-2-.2-3.1-.4.1-.1.2-.3.3-.4.2-.3.5-.7.7-1.1.5-.9.9-2 1.1-3.2 0-.3.1-.7.1-1v-.2c-.1-.3-.3-.5-.6-.6-.7-.1-.9.7-.9 1 0 .1-1.3 5-6.1 5.3H278.7c-2.9-.3-5-2.9-4.7-5.8 0-.2 0-.4.1-.6.2-2 .4-3.9.6-5.9v-.3h-.3c-.5-.1-1-.1-1.6-.2.1-1.4.3-2.8.4-4.2 0-.3.1-.7.1-1 3.2.3 6.4.7 9.5 1z" fill="#54301c"/></g></svg>